<svg id="e9EYWTryni71" xmlns="http://www.w3.org/2000/svg" xmlns:xlink="http://www.w3.org/1999/xlink" viewBox="0 0 4000 4000" shape-rendering="geometricPrecision" text-rendering="geometricPrecision" project-id="314abaa8f300474da84160ab3abcf9a8" export-id="6c704f9377e2409782b0bbc2c5bf69f8" cached="false"><defs><linearGradient id="e9EYWTryni7131-fill" x1="0.5" y1="0" x2="0.5" y2="1" spreadMethod="pad" gradientUnits="objectBoundingBox" gradientTransform="translate(0 0)"><stop id="e9EYWTryni7131-fill-0" offset="0%" stop-color="rgba(255,255,255,0)"/><stop id="e9EYWTryni7131-fill-1" offset="100%" stop-color="#010022"/></linearGradient></defs><g transform="matrix(1.50435 0 0 1.50435-1008.645489-1584.075472)"><g><g opacity="0.3"><path d="M905.958,3425.645c367.336,94.877,1820.638,94.877,2187.975,0c33.979-8.776,25.689-48.139-10.094-48.139h-2167.787c-35.783-.001-44.073,39.362-10.094,48.139Z" fill="#000072"/></g><g><path d="M1008.787,3372.263c41.299-8.069,82.598-10.217,123.896-11.094c41.296-1.128,82.595-.53,123.894.083c41.299.479,82.595.601,123.894.522h123.896h495.579h495.579h247.791l61.946-.017c20.649.012,41.299-.708,61.948-1.04c41.299-.186,82.595.286,123.894,11.545c2.896.789,4.604,3.777,3.813,6.672-.522,1.921-2.024,3.32-3.813,3.813-41.299,11.257-82.595,11.729-123.894,11.545-20.649-.332-41.299-1.055-61.948-1.042l-61.946-.017h-247.791-495.579-495.579-123.896c-41.299-.076-82.595.046-123.894.522-41.299.615-82.598,1.211-123.894.085-41.299-.879-82.598-3.025-123.896-11.094-2.896-.566-4.783-3.372-4.219-6.267.43-2.194,2.151-3.811,4.219-4.216Z" fill="#000072"/></g><g><g id="e9EYWTryni79"><g><g><path d="M2510.787,3265.52l6.524-.776c181.958-21.631,306.505-194.242,269.673-373.742l-68.363-333.162c-31.196-152.031-164.998-261.165-320.197-261.165h-397.775h11.255-397.774c-155.199,0-289,109.134-320.197,261.165l-68.363,333.162c-36.832,179.5,87.715,352.111,269.673,373.742l6.524.776h1009.02Z" fill="#4d5a6a"/></g><g><path d="M2510.933,3268.019h-1009.165l-6.816-.791c-87.427-10.396-167.109-57.302-218.623-128.696-51.509-71.392-70.903-161.794-53.208-248.032l68.359-333.162c31.294-152.485,166.987-263.162,322.651-263.162h784.292c155.664,0,291.353,110.676,322.646,263.162l68.364,333.162c17.695,86.24-1.704,176.646-53.213,248.037-51.514,71.392-131.196,118.298-218.618,128.691l-6.669.791Zm-896.801-968.842c-153.301,0-286.938,108.997-317.749,259.167l-68.359,333.162c-17.417,84.868,1.665,173.84,52.363,244.102c50.693,70.261,129.116,116.426,215.151,126.655l6.523.774l1008.579-.017l6.377-.757c86.035-10.229,164.453-56.392,215.146-126.65c50.698-70.261,69.785-159.233,52.368-244.106l-68.364-333.162c-30.811-150.171-164.443-259.167-317.744-259.167h-784.291v-.001Z" fill="#000072"/></g></g><g opacity="0.3"><path d="M2517.315,3264.77l-6.507.759h-1009.036l-6.507-.759c-116.423-13.828-209.312-89.527-251.554-189.194c46.201,41.537,105.253,69.789,172.059,77.76l6.507.759h1009.036l6.507-.759c181.982-21.636,306.539-194.237,269.666-373.725l-68.324-333.164c-4.609-22.396-11.442-43.815-20.226-64.149c49.562,45.225,85.406,105.849,99.667,175.529l68.379,333.164c36.818,179.487-87.739,352.142-269.667,373.779Z" fill="#000072"/></g><g opacity="0.55"><path d="M2559.72,2339.242c-37.253-14.695-77.706-22.666-119.731-22.666h-784.269c-155.195,0-289.024,109.103-320.204,261.152l-68.379,333.164c-28.089,136.92,37.687,269.774,151.236,334.736-138.493-53.901-224.17-201.775-192.827-354.637l68.379-333.164c31.18-151.995,165.009-261.152,320.204-261.152h784.27c58.237,0,113.439,15.346,161.321,42.567Z" fill="#fff"/></g><g><path d="M2510.787,3281.786h-1009.019c-.64,0-1.279-.037-1.914-.112l-6.523-.774c-91.245-10.847-174.404-59.802-228.164-134.312-53.76-74.507-73.999-168.857-55.532-258.857l68.359-333.159c32.598-158.862,173.965-274.163,336.138-274.163h784.292c162.168,0,303.535,115.3,336.133,274.163l68.364,333.162c18.467,90.002-1.777,184.353-55.537,258.86s-136.919,123.459-228.154,134.307l-6.523.774c-.641.075-1.28.111-1.92.111ZM1502.73,3249.252h1007.095l5.571-.662c82.212-9.775,157.158-53.892,205.605-121.035c48.447-67.146,66.689-152.173,50.044-233.284l-68.364-333.162c-29.507-143.796-157.466-248.167-304.258-248.167h-784.292c-146.797,0-274.756,104.37-304.263,248.167l-68.359,333.162c-16.646,81.108,1.592,166.135,50.039,233.279c48.452,67.148,123.394,111.265,205.615,121.04l5.567.662Z" fill="#000072"/></g></g><g id="e9EYWTryni721"><g><path d="M2585.585,2050.597c-.976,3.796-2.006,7.646-3.037,11.387-.813,2.874-1.627,5.694-2.44,8.514-.325,1.084-.596,2.115-.976,3.199-.651,2.332-1.41,4.664-2.115,6.941-.922,2.983-1.898,5.911-2.874,8.839-.434,1.301-.868,2.603-1.301,3.85-1.41,4.229-2.874,8.405-4.447,12.526-1.627,4.555-3.362,9.056-5.152,13.502-1.735,4.501-3.579,8.948-5.477,13.394-1.844,4.392-3.796,8.838-5.802,13.177-1.898,4.229-3.85,8.405-5.856,12.581-.271.542-.542,1.084-.813,1.627-1.844,3.904-3.796,7.754-5.802,11.604-.054.108-.108.217-.163.325-2.169,4.284-4.392,8.459-6.67,12.689-2.711,4.989-5.477,9.923-8.351,14.803-1.952,3.416-3.959,6.778-5.965,10.141-.108.108-.162.217-.162.271-2.495,4.121-5.043,8.188-7.646,12.255-4.338,6.778-8.784,13.502-13.394,20.172-2.006,2.928-4.067,5.802-6.128,8.676-1.735,2.44-3.47,4.826-5.26,7.267-2.657,3.633-5.369,7.212-8.08,10.791-2.657,3.47-5.314,6.833-8.025,10.249-1.518,1.898-3.036,3.796-4.555,5.639-.976,1.193-1.952,2.386-2.928,3.579-1.844,2.169-3.633,4.338-5.477,6.507-4.989,5.856-10.086,11.658-15.292,17.406-2.494,2.82-5.097,5.585-7.7,8.351-1.898,2.006-3.796,4.067-5.694,6.073-2.711,2.82-5.368,5.585-8.134,8.296-3.904,3.958-7.917,7.917-11.93,11.821-3.253,3.145-6.507,6.236-9.815,9.273-.488.488-.976.976-1.464,1.356-3.362,3.199-6.778,6.29-10.249,9.381-6.345,5.694-12.798,11.225-19.359,16.701-1.627,1.356-3.254,2.711-4.935,4.121-3.308,2.711-6.67,5.423-10.086,8.134-11.821,9.381-23.913,18.437-36.277,27.167-.217.163-.488.325-.705.488-48.207,33.946-100.643,59.161-155.086,75.7-18.87,5.748-38.012,10.466-57.317,14.153-85.514,16.268-174.119,11.984-258.007-12.743-56.395-16.593-110.675-42.459-160.508-77.597-3.905-2.765-7.809-5.585-11.713-8.405-.379-.325-.759-.596-1.193-.867-3.85-2.874-7.7-5.748-11.496-8.622-3.958-3.037-7.917-6.127-11.875-9.272h-.054c-3.904-3.145-7.754-6.29-11.604-9.435-3.904-3.2-7.7-6.453-11.496-9.707-3.796-3.253-7.537-6.507-11.225-9.815-3.742-3.362-7.429-6.67-11.062-10.086-3.633-3.362-7.212-6.778-10.791-10.249-3.579-3.416-7.104-6.886-10.574-10.411-3.471-3.525-6.941-7.049-10.357-10.628-3.416-3.633-6.833-7.266-10.249-10.953-3.254-3.579-6.453-7.158-9.652-10.845-2.494-2.82-4.989-5.694-7.429-8.568-7.104-8.405-14.044-16.973-20.769-25.703-2.711-3.579-5.477-7.158-8.08-10.791-.38-.434-.705-.922-1.03-1.356-1.844-2.44-3.633-4.935-5.368-7.429-4.013-5.639-7.917-11.279-11.713-17.027-2.115-3.145-4.23-6.345-6.236-9.544-3.091-4.826-6.128-9.652-9.11-14.587-2.061-3.471-4.176-6.995-6.236-10.52-2.819-4.934-5.585-9.978-8.351-15.021-2.006-3.796-4.013-7.592-5.965-11.387-2.006-3.85-3.959-7.754-5.802-11.659-.325-.542-.596-1.084-.814-1.627-4.121-8.405-7.971-16.918-11.55-25.486-.217-.38-.38-.705-.488-1.085-1.79-4.229-3.525-8.459-5.206-12.743-1.79-4.447-3.525-8.948-5.152-13.502-1.681-4.501-3.308-9.056-4.826-13.611-1.139-3.362-2.278-6.778-3.362-10.195-.867-2.711-1.681-5.423-2.494-8.134-.38-1.193-.759-2.44-1.085-3.633-.813-2.657-1.572-5.26-2.277-7.917-1.085-3.904-2.115-7.809-3.145-11.767-40.561-286.313,219.778-603.835,479.899-739.997c66.156-34.65,145.325-34.65,211.481,0c5.856,3.037,11.659,6.29,17.515,9.652l.054.054c254.161,146.087,501.974,450.433,462.334,730.292Z" fill="#4d5a6a"/></g><g><g opacity="0.4"><path d="M2099.994,2512.96c7.371-1.914,14.719-3.935,22.013-6.156c54.443-16.541,106.879-41.755,155.086-75.699.217-.164.49-.326.707-.49c12.362-8.729,24.455-17.785,36.277-27.166c3.416-2.711,6.778-5.423,10.085-8.134c1.681-1.408,3.307-2.764,4.935-4.12c6.561-5.478,13.014-11.009,19.358-16.702c3.471-3.093,6.887-6.183,10.249-9.381.487-.381.975-.869,1.464-1.356c3.307-3.037,6.561-6.13,9.815-9.275c4.011-3.903,8.023-7.861,11.928-11.82c2.767-2.711,5.423-5.478,8.134-8.298c1.898-2.004,3.797-4.067,5.695-6.071c2.6-2.767,5.206-5.531,7.7-8.351c5.205-5.748,10.302-11.552,15.291-17.406c1.843-2.168,3.633-4.34,5.478-6.508.974-1.194,1.951-2.385,2.928-3.58c1.517-1.843,3.034-3.741,4.554-5.637c2.711-3.418,5.367-6.778,8.025-10.25c2.711-3.58,5.423-7.159,8.078-10.792c1.79-2.438,3.527-4.827,5.261-7.265c2.06-2.873,4.12-5.748,6.127-8.677c4.61-6.67,9.055-13.392,13.395-20.171c2.603-4.067,5.15-8.134,7.644-12.256c0-.053.056-.162.164-.27c2.004-3.363,4.011-6.725,5.966-10.141c2.873-4.88,5.64-9.815,8.351-14.803c2.277-4.231,4.499-8.404,6.667-12.688.056-.109.111-.217.164-.326c2.007-3.85,3.958-7.702,5.801-11.605.273-.543.543-1.085.813-1.626c2.007-4.175,3.961-8.351,5.857-12.582c2.007-4.337,3.961-8.785,5.804-13.175c1.896-4.448,3.741-8.894,5.476-13.395c1.79-4.446,3.527-8.947,5.153-13.501c1.573-4.123,3.037-8.298,4.446-12.527.434-1.247.868-2.55,1.303-3.852.974-2.926,1.951-5.854,2.873-8.838.704-2.277,1.464-4.607,2.115-6.94.379-1.085.651-2.115.977-3.201.813-2.817,1.626-5.637,2.438-8.513c1.03-3.741,2.06-7.591,3.037-11.388c39.155-276.428-202.14-576.751-452.988-724.848c176.462,160.504,309.983,385.391,280.116,596.387-.977,3.797-2.007,7.647-3.037,11.388-.813,2.875-1.628,5.693-2.441,8.512-.326,1.086-.596,2.116-.974,3.201-.651,2.33-1.411,4.663-2.115,6.94-.921,2.984-1.898,5.912-2.875,8.838-.432,1.303-.866,2.603-1.3,3.853-1.411,4.228-2.873,8.404-4.446,12.524-1.628,4.557-3.363,9.055-5.153,13.504-1.734,4.501-3.58,8.947-5.475,13.392-1.846,4.393-3.797,8.841-5.804,13.178-1.898,4.229-3.85,8.407-5.857,12.579-.27.543-.54,1.086-.813,1.628-1.843,3.903-3.794,7.755-5.801,11.605-.056.106-.108.217-.164.323-2.169,4.284-4.39,8.46-6.67,12.691-2.711,4.989-5.476,9.924-8.351,14.804-1.951,3.416-3.958,6.778-5.965,10.141-.106.106-.162.217-.162.27-2.494,4.12-5.044,8.187-7.644,12.254-4.34,6.778-8.785,13.504-13.395,20.173-2.007,2.928-4.067,5.801-6.127,8.677-1.737,2.439-3.471,4.824-5.261,7.266-2.658,3.633-5.37,7.212-8.081,10.792-2.656,3.469-5.312,6.831-8.023,10.247-1.52,1.898-3.037,3.797-4.557,5.64-.977,1.194-1.951,2.385-2.928,3.58-1.843,2.169-3.633,4.337-5.476,6.508-4.988,5.854-10.085,11.658-15.291,17.406-2.497,2.82-5.1,5.584-7.702,8.351-1.898,2.004-3.794,4.067-5.693,6.071-2.711,2.82-5.37,5.587-8.134,8.298-3.905,3.958-7.917,7.917-11.931,11.82-3.254,3.146-6.505,6.238-9.815,9.275-.487.487-.974.974-1.462,1.356-3.363,3.198-6.778,6.288-10.249,9.378-6.347,5.695-12.797,11.227-19.36,16.702-1.626,1.356-3.254,2.711-4.933,4.123-3.31,2.711-6.67,5.423-10.088,8.134-11.82,9.381-23.912,18.436-36.277,27.166-.217.164-.487.326-.704.49-48.208,33.944-100.644,59.159-155.087,75.699-18.87,5.748-38.011,10.464-57.316,14.152-32.067,6.1-64.571,9.312-97.096,9.638c32.525-.326,65.029-3.537,97.096-9.638.924-.177,1.843-.384,2.767-.567-11.693,3.037-23.462,5.735-35.302,7.996-70.748,13.458-143.606,12.807-214.163-1.808-.821-.646-1.642-1.274-2.465-1.922c3.884,3.082,7.771,6.119,11.653,9.098c3.797,2.875,7.647,5.748,11.497,8.624.434.27.815.54,1.194.866c3.903,2.82,7.808,5.64,11.711,8.407c49.836,35.138,104.115,61.004,160.509,77.598c83.889,24.725,172.493,29.009,258.007,12.741c10.091-1.928,20.133-4.152,30.121-6.641-9.072,2.251-18.194,4.274-27.352,6.072Z" fill="#000072"/></g></g><g opacity="0.55"><path d="M2216.253,1384.357c-20.009-13.556-40.236-26.191-60.462-37.849l-.054-.054c-5.856-3.362-11.658-6.616-17.515-9.652-66.156-34.65-145.325-34.65-211.481,0-260.122,136.161-520.46,453.708-479.899,740.021c1.03,3.958,2.061,7.863,3.145,11.767.705,2.657,1.464,5.26,2.277,7.917.325,1.193.705,2.44,1.085,3.633.813,2.711,1.627,5.423,2.494,8.134c1.085,3.416,2.224,6.833,3.362,10.195c1.518,4.555,3.145,9.11,4.826,13.611c1.627,4.555,3.362,9.055,5.151,13.502c1.681,4.284,3.416,8.513,5.206,12.743.108.38.271.705.488,1.085c3.579,8.568,7.429,17.081,11.55,25.486.217.542.488,1.084.813,1.627c1.844,3.904,3.796,7.808,5.802,11.659c1.952,3.796,3.958,7.591,5.965,11.387c2.766,5.043,5.531,10.086,8.351,15.021c2.061,3.524,4.176,7.049,6.236,10.52c2.982,4.934,6.019,9.761,9.11,14.587c2.006,3.199,4.121,6.398,6.236,9.544c3.796,5.748,7.7,11.387,11.713,17.027c1.735,2.495,3.525,4.989,5.368,7.429.325.434.651.922,1.03,1.356c2.603,3.633,5.368,7.212,8.08,10.791c6.724,8.73,13.665,17.298,20.769,25.703c2.44,2.874,4.935,5.748,7.429,8.568c3.199,3.687,6.399,7.266,9.652,10.845c3.416,3.687,6.833,7.32,10.249,10.953c3.416,3.579,6.886,7.104,10.357,10.628s6.995,6.995,10.574,10.411c3.579,3.47,7.158,6.887,10.791,10.249c3.633,3.417,7.32,6.724,11.062,10.086c3.687,3.308,7.429,6.561,11.225,9.815s7.592,6.507,11.496,9.707c3.85,3.145,7.7,6.29,11.604,9.435h.054c3.958,3.145,7.917,6.236,11.875,9.272c3.525,2.657,7.104,5.314,10.682,8.025-4.5-2.928-8.947-5.965-13.394-9.11-3.904-2.765-7.809-5.585-11.713-8.405-.379-.325-.759-.597-1.193-.868-3.85-2.874-7.7-5.748-11.496-8.622-3.958-3.037-7.917-6.127-11.875-9.272h-.054c-3.904-3.145-7.754-6.29-11.604-9.435-3.904-3.199-7.7-6.453-11.496-9.707-3.796-3.253-7.537-6.507-11.225-9.815-3.742-3.362-7.429-6.67-11.062-10.086-3.633-3.362-7.212-6.778-10.791-10.249-3.579-3.416-7.104-6.887-10.574-10.411-3.471-3.525-6.941-7.049-10.357-10.628-3.416-3.633-6.833-7.266-10.249-10.953-3.254-3.579-6.453-7.158-9.652-10.845-2.494-2.82-4.989-5.694-7.429-8.568-7.104-8.405-14.044-16.973-20.769-25.703-2.711-3.579-5.477-7.158-8.08-10.791-.38-.434-.705-.922-1.03-1.356-1.844-2.44-3.633-4.934-5.368-7.429-4.013-5.639-7.917-11.279-11.713-17.027-2.115-3.145-4.23-6.345-6.236-9.544-3.091-4.826-6.128-9.652-9.11-14.587-2.061-3.47-4.176-6.995-6.236-10.52-2.82-4.935-5.585-9.978-8.351-15.021-2.006-3.796-4.013-7.592-5.965-11.387-2.006-3.85-3.959-7.754-5.802-11.659-.325-.542-.596-1.084-.814-1.627-4.121-8.405-7.971-16.918-11.55-25.486-.217-.38-.38-.705-.488-1.085-1.79-4.229-3.525-8.459-5.206-12.743-1.789-4.447-3.525-8.947-5.151-13.502-1.681-4.501-3.308-9.056-4.826-13.611-1.139-3.362-2.278-6.778-3.362-10.194-.867-2.711-1.681-5.423-2.494-8.134-.38-1.193-.759-2.44-1.085-3.633-.813-2.657-1.572-5.26-2.277-7.917-1.085-3.904-2.115-7.809-3.145-11.767-40.561-286.313,219.778-603.86,479.899-740.021c66.156-34.65,145.325-34.65,211.481,0c5.856,3.037,11.659,6.29,17.515,9.652l.054.054c29.447,16.918,58.783,35.951,87.577,56.828Z" fill="#fff"/></g><g><path d="M1999.942,2539.367c-113.994.005-227.964-34.297-325.186-102.888-3.97-2.813-7.92-5.664-11.865-8.516-.205-.146-.405-.3-.601-.457-.273-.178-.537-.366-.801-.559-4.092-3.059-7.866-5.876-11.582-8.689-3.843-2.949-7.617-5.896-11.387-8.884-.317-.217-.62-.444-.918-.686-3.813-3.069-7.573-6.14-11.338-9.214-4.375-3.586-8.267-6.917-12.148-10.247-3.892-3.337-7.729-6.672-11.504-10.061l-.532-.479c-3.657-3.284-7.256-6.523-10.811-9.866-3.628-3.357-7.3-6.86-10.972-10.42-3.604-3.44-7.251-7.029-10.84-10.674-3.677-3.733-7.134-7.246-10.537-10.815-3.525-3.745-6.963-7.405-10.405-11.121-3.447-3.792-6.733-7.463-10.015-11.243-2.466-2.788-5.039-5.75-7.549-8.716-7.446-8.806-14.59-17.646-21.25-26.292l-1.792-2.363c-2.124-2.793-4.248-5.591-6.289-8.423-.376-.469-.732-.947-1.074-1.418-2.007-2.661-3.921-5.33-5.781-7.998-4.355-6.118-8.291-11.841-11.934-17.356-2.139-3.179-4.351-6.523-6.445-9.866-3.091-4.822-6.201-9.771-9.253-14.827l-1.914-3.215c-1.484-2.488-2.979-4.995-4.443-7.505-2.798-4.897-5.469-9.756-8.135-14.614l-.43-.784c-2.163-4.08-4.199-7.935-6.177-11.785-1.963-3.767-3.916-7.668-5.771-11.572-.449-.815-.859-1.641-1.211-2.468-4.38-9.058-8.125-17.314-11.435-25.198-.317-.632-.664-1.389-.982-2.261-1.763-4.18-3.476-8.362-5.137-12.595-1.812-4.512-3.628-9.214-5.327-13.972-1.665-4.458-3.354-9.197-4.937-13.936-1.147-3.389-2.319-6.902-3.438-10.415-.884-2.781-1.724-5.576-2.568-8.374-.371-1.174-.811-2.627-1.191-4.016-.742-2.405-1.558-5.2-2.315-8.057-1.055-3.796-2.109-7.783-3.159-11.826-.156-.598-.278-1.206-.366-1.816-24.56-173.384,57.124-333.84,129.976-437.917c92.061-131.521,222.724-247.71,358.486-318.774c70.938-37.153,155.635-37.153,226.572,0c135.762,71.065,266.426,187.256,358.486,318.774c72.852,104.077,154.536,264.534,129.976,437.917-.088.596-.205,1.189-.356,1.772-.996,3.882-2.051,7.82-3.105,11.648l-2.788,9.709c-.244.842-.488,1.67-.771,2.52-.488,1.711-1.021,3.423-1.553,5.112l-.562,1.792c-.889,2.883-1.826,5.706-2.759,8.525l-.215.64c-.469,1.399-.923,2.769-1.382,4.08-1.416,4.246-2.959,8.638-4.609,12.971-1.577,4.434-3.389,9.138-5.264,13.787-1.709,4.443-3.628,9.067-5.596,13.689-1.89,4.492-3.921,9.116-6.006,13.628-1.875,4.185-3.887,8.491-5.957,12.8l-.942,1.882c-1.753,3.735-3.804,7.778-5.913,11.821-2.3,4.558-4.59,8.853-6.929,13.201-2.827,5.21-5.688,10.305-8.652,15.347-1.904,3.33-3.965,6.78-6.021,10.227-.024.037-.044.073-.068.11-.049.083-.098.166-.146.249-2.563,4.236-5.186,8.418-7.861,12.598-4.771,7.454-9.258,14.209-13.711,20.654-2.036,2.974-4.165,5.94-6.289,8.906-1.753,2.456-3.525,4.897-5.356,7.397-2.715,3.706-5.474,7.354-8.237,11.001-2.769,3.618-5.483,7.056-8.262,10.549-1.597,2-3.164,3.958-4.736,5.862l-8.564,10.283c-5.107,5.991-10.361,11.97-15.63,17.786-2.393,2.715-5.039,5.532-7.686,8.345l-5.957,6.348c-2.969,3.091-5.708,5.938-8.555,8.73-3.784,3.838-7.876,7.878-11.973,11.863-3.311,3.201-6.587,6.316-9.922,9.377-.62.613-1.25,1.204-1.875,1.741-3.364,3.193-6.782,6.284-10.259,9.377-6.738,5.994-13.379,11.724-19.746,17.036l-4.897,4.094c-3.521,2.888-6.953,5.654-10.43,8.416-11.982,9.512-24.438,18.835-37.012,27.717-.098.068-.42.291-.601.415-.044.029-.088.061-.132.093-97.064,68.261-210.779,102.387-324.466,102.389Zm-317.588-137.481c3.726,2.693,7.456,5.383,11.182,8.022c182.964,129.089,428.975,129.277,612.163.457v.002c.254-.183.527-.371.688-.479c12.07-8.525,24.028-17.48,35.537-26.614c3.345-2.656,6.641-5.315,9.883-7.971l4.824-4.031c6.104-5.098,12.49-10.608,18.97-16.372c3.33-2.961,6.616-5.93,9.844-9.004.278-.269.571-.525.874-.774l.303-.303c.166-.164.337-.325.508-.483c3.203-2.942,6.353-5.935,9.502-8.979c3.896-3.792,7.832-7.671,11.65-11.548c2.817-2.764,5.332-5.378,7.891-8.042l5.693-6.074c2.617-2.778,5.029-5.342,7.339-7.954c5.186-5.725,10.22-11.458,15.103-17.188l8.169-9.805c1.528-1.858,2.998-3.694,4.468-5.53c2.622-3.301,5.22-6.587,7.817-9.978c2.603-3.44,5.264-6.951,7.871-10.515c1.743-2.378,3.438-4.707,5.132-7.09c2.026-2.825,4.019-5.605,5.962-8.438c4.272-6.182,8.55-12.625,13.11-19.749c2.524-3.943,5-7.891,7.422-11.892.039-.066.078-.132.117-.198v0c1.958-3.276,3.911-6.55,5.815-9.878c2.876-4.893,5.552-9.666,8.174-14.492c2.183-4.053,4.346-8.108,6.45-12.268.029-.059.22-.442.254-.5c1.904-3.657,3.76-7.314,5.513-11.023l1.001-2.017c1.807-3.765,3.701-7.805,5.532-11.902c2.012-4.346,3.887-8.616,5.659-12.83c1.851-4.346,3.623-8.618,5.288-12.939c1.802-4.478,3.457-8.777,5.01-13.125c1.611-4.238,3.003-8.196,4.341-12.205l1.504-4.465c.869-2.612,1.738-5.225,2.559-7.883l.601-1.924c.474-1.514.957-3.044,1.387-4.575.093-.347.2-.688.322-1.028.156-.454.278-.896.405-1.34l2.71-9.419c.894-3.254,1.821-6.702,2.705-10.122c17.676-126.88-26.533-273.789-124.541-413.801-89.175-127.392-215.62-239.878-346.924-308.608-61.484-32.207-134.902-32.207-196.387,0-131.304,68.73-257.754,181.213-346.929,308.608-97.998,140.005-142.202,286.909-124.541,413.784.933,3.562,1.865,7.085,2.842,10.605.703,2.656,1.411,5.063,2.163,7.522.4,1.448.723,2.49,1.035,3.486.854,2.839,1.646,5.464,2.481,8.091c1.06,3.335,2.173,6.653,3.276,9.917c1.479,4.443,3.042,8.816,4.653,13.137c1.636,4.573,3.296,8.875,5.005,13.125c1.68,4.282,3.364,8.379,5.098,12.476.029.076.064.151.093.229.151.305.293.615.42.918c3.198,7.659,6.86,15.728,11.187,24.673.103.215.205.432.298.652.205.361.4.73.576,1.106c1.758,3.713,3.613,7.432,5.522,11.094c1.968,3.826,3.945,7.563,5.918,11.304l.308.557c2.583,4.7,5.161,9.397,7.788,13.999c1.338,2.285,2.783,4.712,4.219,7.119l1.88,3.159c2.847,4.712,5.811,9.417,8.823,14.124c1.997,3.179,4.014,6.235,6.035,9.238c3.506,5.308,7.236,10.725,11.465,16.67c1.714,2.456,3.374,4.778,5.093,7.046.073.1.405.554.479.657l-.22-.242c.366.413.708.842,1.025,1.287c1.958,2.737,4.014,5.435,6.065,8.13l1.753,2.312c6.279,8.147,13.11,16.602,20.224,25.02c2.354,2.773,4.771,5.559,7.188,8.291c3.223,3.713,6.343,7.2,9.512,10.686c3.281,3.538,6.67,7.144,10.059,10.752c3.203,3.357,6.543,6.746,9.883,10.137c3.569,3.625,6.973,6.975,10.43,10.276c3.584,3.474,7.07,6.802,10.61,10.076c3.472,3.267,6.89,6.338,10.361,9.456l.522.471c3.589,3.22,7.241,6.394,10.942,9.568c3.701,3.171,7.407,6.35,11.216,9.473c3.765,3.076,7.236,5.908,10.728,8.726.249.176.498.361.737.552c3.887,3.086,7.769,6.121,11.66,9.104c3.54,2.681,7.212,5.425,10.884,8.167.643.423,1.243.863,1.834,1.336Zm-20.483,25.274c.005.002.01.007.015.012-.005-.005-.01-.01-.015-.012Zm724.824-82.339c-.039.032-.078.063-.117.095.039-.031.078-.063.117-.095ZM1457.501,2127.66c.005.007.005.015.01.022-.005-.007-.005-.014-.01-.022Zm-.996-2.47c.005.005.005.007.01.012-.005-.005-.005-.01-.01-.012Zm1129.082-74.59h.049-.049Z" fill="#000072"/></g><g><g><g><g><path d="M2455.638,2132.773c-1,3.046-2.088,6.135-3.219,9.311-30.152,77.229-89.281,118.388-125.089,71.79l21.363-104.9l14.532-71.312c55.865-38.157,130.353-21.015,92.413,95.111Z" fill="#fdbd91"/></g><g><path d="M2363.145,2235.473c-14.209,0-27.021-6.97-37.354-20.417l-.537-.701l36.226-177.849.649-.444c30.498-20.83,64.824-24.441,85.405-8.999c13.403,10.054,32.515,37.236,9.941,106.313v0c-1.001,3.062-2.095,6.167-3.232,9.36-20.151,51.619-53.384,87.817-84.678,92.273-2.167.31-4.31.464-6.42.464Zm-33.735-22.088c10.874,13.777,24.526,19.922,39.609,17.786c29.932-4.265,61.963-39.509,81.592-89.792c1.108-3.105,2.192-6.177,3.184-9.209v0c16.172-49.492,13.12-85.718-8.589-102.007-19.111-14.343-51.284-10.842-80.239,8.662l-35.557,174.56Z" fill="#000072"/></g></g><g opacity="0.3"><path d="M2455.638,2132.773c-1,3.046-2.088,6.135-3.219,9.311-30.152,77.229-89.281,118.388-125.089,71.79l21.363-104.9c5.004-.392,8.006-.609,8.006-.609c21.711,67.918,53.255,73.965,94.632,18.1-.001-.001,1.566,2.306,4.307,6.308Z" fill="#000072"/></g><g><path d="M2363.223,2246.569c-17.632,0-33.828-8.594-46.24-24.739-2.31-3-3.198-6.853-2.441-10.562l35.894-176.211c.674-3.328,2.622-6.26,5.425-8.174c34.849-23.797,74.648-27.097,99.023-8.193c16.353,12.676,39.375,46.14,9.81,127.834-22.007,56.379-57.808,94.38-93.55,99.475-2.667.382-5.308.57-7.921.57Zm-21.836-36.306c7.681,8.049,16.27,11.284,26.074,9.895c25.63-3.655,54.883-36.938,72.798-82.82c17.368-48.008,16.914-83.845-1.367-98.015-14.292-11.079-40.073-8.374-63.97,6.309l-33.535,164.631Z" fill="#000072"/></g><g><g><path d="M1544.362,2132.773c1.001,3.046,2.088,6.135,3.22,9.311c30.152,77.229,89.281,118.388,125.089,71.79l-21.363-104.9-14.532-71.312c-55.866-38.157-130.354-21.015-92.414,95.111Z" fill="#fdbd91"/></g><g><path d="M1636.866,2236.247c-2.148,0-4.331-.159-6.543-.474-31.563-4.495-65.034-40.884-85.264-92.703-1.172-3.274-2.266-6.384-3.276-9.451v-.005c-22.715-69.534-3.35-96.992,10.22-107.173c20.845-15.64,55.527-12.036,86.299,8.982l.908.62l36.367,178.501-.757.981c-10.488,13.647-23.501,20.722-37.954,20.722Zm-89.927-104.317c.991,3.025,2.075,6.091,3.198,9.243c19.502,49.951,51.289,85.007,80.952,89.233c14.883,2.112,27.881-3.672,38.677-17.219l-35.43-173.899c-28.618-19.172-60.298-22.608-79.077-8.508-21.425,16.075-24.379,51.995-8.32,101.15v0Z" fill="#000072"/></g></g><g opacity="0.55"><path d="M1624.424,2232.254c-27.628-9.224-56.127-42.552-74.226-88.889-1.131-3.176-2.219-6.265-3.22-9.311-37.94-116.126,36.548-133.269,92.413-95.111l.261,1.305c-50.514-19.101-101.463,7.397-68.744,107.598c1.001,3.046,2.089,6.135,3.22,9.311c12.835,32.937,30.978,59.303,50.296,75.097Z" fill="#fff"/></g><g><path d="M1636.778,2246.569c-2.612,0-5.254-.188-7.92-.569-35.742-5.095-71.543-43.096-93.433-99.17-29.683-82-6.66-115.464,9.692-128.14c24.38-18.896,64.17-15.605,99.018,8.193c2.803,1.914,4.751,4.846,5.425,8.174l35.899,176.211c.757,3.708-.132,7.561-2.441,10.562-12.412,16.143-28.608,24.739-46.24,24.739Zm-53.022-214.045c-8.882,0-16.743,2.224-22.646,6.799-18.281,14.17-18.735,50.007-1.25,98.32c17.798,45.576,47.051,78.86,72.681,82.515c9.814,1.392,18.384-1.846,26.074-9.895l-33.54-164.631c-14.024-8.618-28.702-13.108-41.319-13.108Z" fill="#000072"/></g><g><g><path d="M2355.349,2111.628v60.303c0,103.726-49.644,202.1-135.139,260.837-1.219.827-2.437,1.61-3.612,2.437-130.396,87.41-301.126,87.41-431.523.044-1.175-.827-2.393-1.654-3.611-2.48-85.539-58.694-135.183-157.068-135.183-260.837v-60.303c0,0,.218-3.872.653-10.834c3.22-55.039,17.795-301.997,20.145-308.306c77.62-208.931,853.649-157.721,688.27,319.139Z" fill="#fdbd91"/></g><g><path d="M2000.792,2503.815c-75.625,0-151.24-22.104-217.227-66.313-1.099-.774-2.183-1.511-3.271-2.251-85.747-58.833-136.724-157.18-136.724-263.32v-60.303c.005-.154.225-4.031.659-11.001c5.307-90.784,17.91-302.651,20.313-309.084c20.371-54.841,89.443-95.476,189.497-111.48c96.582-15.449,209.087-4.978,300.942,28.005c91.714,32.934,294.995,138.215,203.076,404.016v59.846c0,106.086-50.957,204.431-136.313,263.071l-1.406.942c-.737.491-1.47.979-2.183,1.479-66.025,44.262-141.699,66.393-217.363,66.393Zm-55.205-825.334c-31.011,0-61.577,2.28-90.688,6.938-98.071,15.684-165.601,55.054-185.273,108.015-1.88,6.948-11.943,170.017-19.985,307.519-.435,6.956-.654,10.823-.654,10.828l.005,60.149c0,104.353,50.098,201.025,134.009,258.601c1.455.991,2.568,1.748,3.638,2.5c130.112,87.173,298.311,87.153,428.452-.078.703-.496,1.47-1.008,2.246-1.523l1.353-.906c83.872-57.62,133.95-154.294,133.95-258.594l.146-61.191c90.708-261.548-109.39-365.161-199.634-397.566-63.347-22.749-136.608-34.692-207.565-34.692Z" fill="#000072"/></g></g><g opacity="0.3"><path d="M2355.349,2111.628v60.303c0,103.726-49.644,202.1-135.139,260.837-1.219.827-2.437,1.61-3.612,2.437-130.396,87.41-301.126,87.41-431.523.044-1.175-.827-2.393-1.654-3.611-2.48-2.698-1.871-5.395-3.785-8.049-5.743c122.696,59.651,269.756,50.775,385.186-26.628c1.175-.827,2.393-1.61,3.611-2.437c85.495-58.737,135.139-157.111,135.139-260.837l5.157-76.015c56.127-161.81-1.328-258.874-97.919-329.098c131.442,64.785,217.286,187.742,150.76,379.617Z" fill="#000072"/></g><g opacity="0.3"><path d="M2355.349,2111.628v24.496c-38.984-57.432-46.511-214.152-46.511-214.152-34.082,37.012-225.505,79.688-359.845,8.323-7.247-3.849-15.197,3.848-11.56,11.203c1.639,3.314,2.302,4.433,2.302,4.433-17.669,10.938-100.899.277-146.048-25.995-12.557-7.307-28.57.608-30.819,14.961-10.116,64.55-42.253,109.487-111.018,176.732-1.697-3.611-3.35-7.223-4.917-10.834c3.22-55.039,17.795-301.997,20.145-308.306c77.621-208.931,853.65-157.721,688.271,319.139Z" fill="#000072"/></g><g opacity="0.55"><path d="M2147.941,2471.796c-117.91,48.339-254.354,36.156-362.866-36.547-1.175-.827-2.393-1.654-3.611-2.48-85.539-58.694-135.183-157.068-135.183-260.837v-60.303c0,0,18.144-312.047,20.798-319.139c16.316-43.901,63.436-76.315,126.22-95.72-47.208,19.71-81.884,48.208-95.415,84.582-2.654,7.136-20.797,319.139-20.797,319.139v60.304c0,103.769,49.644,202.143,135.183,260.881c1.219.783,2.564,1.448,3.655,2.437c84.662,76.655,221.677,82.36,332.016,47.683Z" fill="#fff"/></g><g><path d="M2000.821,2514.177c-77.632,0-155.254-22.695-222.988-68.091-1.25-.835-2.5-1.685-3.75-2.539-88.198-60.52-140.854-162.061-140.854-271.619v-60.3c0-.254.005-.505.02-.757c18.252-313.757,20.771-320.723,21.597-322.944v0c47.769-128.523,316.87-156.67,503.672-89.578c88.984,31.963,156.357,82.649,194.844,146.577c45.288,75.239,50.347,165.696,15.039,268.887v58.115c0,109.531-52.642,211.06-140.82,271.594l-3.716,2.522c-67.746,45.42-145.397,68.13-223.044,68.133Zm-341.489-402.171v59.922c0,100.95,48.423,194.443,129.526,250.098c1.162.798,2.324,1.584,3.496,2.368c126.665,84.89,290.332,84.875,416.958-.024l3.481-2.363c81.094-55.669,129.502-149.153,129.502-250.078v-60.3c0-1.455.244-2.903.718-4.277c87.69-252.803-105.986-353.061-193.325-384.434-189.302-67.988-430.195-30.337-470.015,73.162-2.416,16.856-13.417,196.956-20.341,315.926Zm19.985-314.983c-.005,0-.005,0-.005,0s0,0,.005,0Zm.093-.259c-.029.076-.063.168-.088.244.024-.07.054-.151.088-.244Zm-12.329-4.292h.049-.049Z" fill="#000072"/></g><g><g><path d="M2351.26,1664.572c97.896,125.089,85.713,342.765,3.263,456.846-63.088-34.807-67.265-199.446-67.265-199.446-149.323,40.638-300.43,15.837-437.441-102.203-2.915,46.381,35.939,89.411,35.939,89.411-17.621-.522-33.415-3.089-47.599-7.353-49.557-14.837-79.056-50.731-97.112-95.85-17.404,156.633-18.491,191.44-94.763,305.651-76.141-163.159-90.151-364.389,36.765-424.562-176.951-60.913-111.688-184.218,40.594-74.705-74.705-107.337,19.579-148.714,39.158-30.456c110.121-201.143,593.899-130.527,659.468,97.896l-70.833-15.185c-.131-.044-.174-.044-.174-.044Z" fill="#ac3d50"/></g><g><path d="M2355.313,2124.95l-2.1-1.16c-59.37-32.754-67.568-173.735-68.55-198.313-158.618,42.158-304.009,8.542-432.29-99.958.42,42.554,35.029,81.438,35.396,81.843l4.253,4.712-6.343-.185c-17.266-.51-33.516-3.02-48.306-7.463-42.861-12.835-73.95-41.619-94.771-87.852l-.952,8.591c-15.479,140.251-19.639,177.947-93.115,287.969l-2.676,4.004-2.036-4.363c-76.684-164.336-89.434-361.416,32.3-425.281-71.475-25.95-99.58-60.898-101.904-85.393-1.216-12.793,4.277-23.377,15.469-29.8c20.977-12.041,64.116-9.888,124.102,29.949-25.132-41.118-24.424-70.876-15.347-84.517c5.317-7.991,13.652-11.448,22.778-9.475c15.273,3.279,34.126,22.38,42.91,65.881c60.562-100.615,206.66-122.864,324.966-109.712c140.967,15.667,299.458,88.108,335.776,214.624l1.245,4.346-68.262-14.631c94.985,128.484,78.491,344.06-1.138,454.241l-1.405,1.943Zm-65.434-206.501l.088,3.455c.044,1.611,4.751,159.788,63.784,195.93c78.486-110.918,93.281-326.487-4.624-451.592l-3.433-4.382l6.626.195l66.035,14.133c-37.998-121.409-192.329-191.087-329.858-206.372-119.043-13.235-266.494,9.604-323.32,113.389l-3.77,6.887-1.284-7.747c-7.627-46.062-26.333-65.842-40.039-68.786-6.963-1.487-13.042,1.047-17.124,7.178-8.97,13.482-8.354,45.159,22.905,90.076l9.038,12.991-12.847-9.241c-63.931-45.969-109.824-48.965-129.668-37.559-9.238,5.303-13.774,14.033-12.773,24.585c2.134,22.417,30.728,57.585,104.316,82.915l6.289,2.166-6.011,2.847c-123.56,58.579-112.417,253.02-37.5,416.575c70.156-105.83,74.375-144.038,89.551-281.518l3.286-29.644l4.019,10.039c20.103,50.234,51.299,81.069,95.366,94.263c12.583,3.782,26.284,6.121,40.801,6.97-10.044-12.617-35.039-48.152-32.622-86.602l.342-5.444l4.131,3.562c128.774,110.943,275.108,145.147,434.961,101.638l3.335-.907Z" fill="#000072"/></g></g><g opacity="0.3"><path d="M1722.934,1778.708c6.488,12.521,12.407,26.635,16.327,43.367-15.794,143.101-19.405,179.344-92.979,289.553-8.615-18.491-16.446-37.418-23.321-56.605c60.412-93.713,67.476-146.647,81.432-272.902c1.073-9.706,14.048-12.082,18.541-3.413Z" fill="#000072"/></g><g opacity="0.55"><path d="M1694.881,1593.782c-95.807-40.594-130.484,29.586-37.157,83.451-134.704-58.737-86.67-154.37,37.157-83.451Z" fill="#fff"/></g><g opacity="0.55"><path d="M1680.001,1688.589c.089.04.178.081.269.121c12.061,5.333,14.611,21.161,4.459,29.579-86.685,71.876-83.389,233.596-26.177,374.587-3.829,6.004-7.919,12.27-12.27,18.752-75.532-161.854-89.934-361.126,33.719-423.039Z" fill="#fff"/></g><g opacity="0.55"><path d="M1717.679,1610.62l-.293-.162c-50.558-77.838-4.557-122.663,26.16-86.768-16.966,2.504-27.041,28.743-8.2,70.256c4.998,11.012-7.054,22.473-17.667,16.674Z" fill="#fff"/></g><g opacity="0.55"><path d="M2326.242,1562.325c-83.363-38.462-195.008-64.176-296.34-64.654-15.62,29.978-68.266,28.498-90.412,7.179-56.997,10.225-105.249,31.805-135.357,67.787-8.615,10.312-25.453,9.615-32.24-2.001-.392-.609-.74-1.262-1.044-2.001c94.414-120.391,412.901-130.311,555.393-6.31Z" fill="#fff"/></g><g><path d="M2354.512,2134.472c-2.139,0-4.307-.527-6.294-1.626-57.563-31.758-70.42-149.023-73.257-194.233-148.608,36.04-285.586,6.489-407.915-87.935c8.843,27.686,28.149,49.478,28.413,49.768c3.486,3.889,4.331,9.49,2.129,14.226-2.148,4.617-6.768,7.558-11.831,7.558-.132,0-.264,0-.4-.005-59.932-1.841-105.537-26.038-136.074-72.07-13.784,123.091-21.636,163.137-92.148,268.721-2.617,3.916-7.104,6.111-11.846,5.767-4.702-.359-8.843-3.223-10.835-7.495-74.824-160.339-89.258-351.565,18.643-427.686-61.714-26.814-86.782-61.24-89.175-86.382-1.597-16.824,5.918-31.311,20.62-39.749c19.751-11.348,56.055-12.178,104.775,12.59-10.747-29.233-7.935-51.216.518-63.919c7.685-11.54,20.249-16.721,33.56-13.857c19.17,4.119,35.078,22.8,44.917,51.672c69.019-88.63,208.11-108.308,321.929-95.669c144.395,16.047,306.938,90.933,344.57,222.048c1.27,4.409.127,9.158-3.003,12.51-3.13,3.354-7.783,4.812-12.28,3.855l-38.833-8.33c35.332,57.961,53.945,132.283,52.881,213.062-1.177,88.708-26.133,173.184-68.472,231.77-2.535,3.505-6.519,5.409-10.592,5.409Zm-67.26-225.552c2.778,0,5.518.886,7.798,2.581c3.213,2.392,5.151,6.13,5.254,10.137c1.05,40.557,12.378,145.942,50.977,181.392c71.113-110.188,82.358-312.019-10.298-430.413-3.389-4.326-3.701-10.31-.786-14.966c2.91-4.661,8.408-6.995,13.804-5.842l48.174,10.332c-45.234-106.416-187.339-167.876-314.819-182.046-145.43-16.155-268.315,26.262-313.106,108.076-2.681,4.885-8.154,7.537-13.638,6.602-5.488-.933-9.78-5.244-10.688-10.737-7.266-43.872-24.116-58.669-32.007-60.364-1.938-.417-4.209-.42-6.348,2.795-5.376,8.081-7.534,34.873,22.783,78.438c3.633,5.22,2.974,12.295-1.553,16.758-4.541,4.456-11.626,5.002-16.782,1.296-56.094-40.342-99.927-47.637-118.481-36.985-5.752,3.301-8.247,8.088-7.622,14.636c1.982,20.889,32.866,51.907,97.383,74.116c5.02,1.726,8.491,6.318,8.784,11.616s-2.646,10.247-7.441,12.52c-68.267,32.366-85.034,106.145-87.075,162.339-2.422,66.621,14.56,146.858,46.914,223.262c58.813-91.694,62.983-129.46,77.505-261.025l2.09-18.904c.664-5.95,5.288-10.686,11.221-11.492c5.947-.808,11.65,2.534,13.872,8.089c21.016,52.561,55.517,82.895,105.039,92.092-11.216-18.53-23.223-45.537-21.416-74.27.313-4.946,3.394-9.29,7.964-11.213c4.561-1.924,9.829-1.099,13.584,2.143c126.016,108.557,269.155,142.036,425.493,99.495c1.126-.309,2.278-.458,3.421-.458Z" fill="#000072"/></g><g><path d="M2287.247,1935.029c-5.757,0-11.03-3.84-12.593-9.665-1.875-6.963,2.251-14.124,9.214-15.996c16.211-4.36,32.603-9.595,48.721-15.561c6.763-2.5,14.272.95,16.772,7.71s-.952,14.27-7.71,16.772c-16.865,6.243-34.023,11.721-51.006,16.289-1.133.304-2.275.451-3.398.451Z" fill="#000072"/></g><g opacity="0.3"><path d="M2354.523,2121.417c-63.088-34.807-67.265-199.446-67.265-199.446-149.323,40.638-300.43,15.837-437.441-102.203-2.915,46.381,35.939,89.411,35.939,89.411-17.621-.522-33.415-3.089-47.599-7.353-71.442-117.736-41.029-145.495,61.696-109.295c285.072,91.978,492.61,106.38,451.407-127.96c97.895,125.09,85.712,342.765,3.263,456.846Z" fill="#000072"/></g><g opacity="0.2"><path d="M2282.149,1773.355c0,19.773-38.712,35.802-86.467,35.802-47.754,0-86.467-16.029-86.467-35.802s38.713-20.284,86.467-20.284c47.755-.001,86.467.511,86.467,20.284Z" fill="#fefefe"/></g><g><g><path d="M2046.562,2352.994c0,0-18.724,11.958-67.514,11.958-10.585.732-40.876-.932-79.156-35.883c0,0,17.684,50.971,78.016,50.971c0,0,34.327,3.12,68.654-27.046Z" fill="#000072"/></g></g><g transform="translate(0 0.000001)"><path d="M1769.536,2126.477c4.099-13.313,13.906-24.39,25.991-31.926c12.148-7.527,26.707-11.379,41.143-11.228c14.451.1,28.804,4.243,40.818,11.729c11.963,7.507,21.78,18.274,26.365,31.426-13.13-4.512-24.314-8.115-35.354-10.435-10.964-2.368-21.536-3.54-32.095-3.687-10.559-.107-21.096.825-31.963,3.135-10.94,2.26-21.99,5.952-34.905,10.986Z" transform="translate(0 0.000001)" fill="#000072"/></g><g transform="translate(0 0.000001)"><path d="M2237.336,2126.477c-12.915-5.034-23.965-8.726-34.905-10.986-10.867-2.31-21.404-3.242-31.963-3.135-10.559.146-21.13,1.318-32.095,3.687-11.04,2.319-22.224,5.923-35.354,10.435c4.585-13.152,14.402-23.918,26.365-31.426c12.014-7.485,26.367-11.628,40.818-11.729c14.436-.151,28.994,3.701,41.143,11.228c12.085,7.536,21.892,18.613,25.991,31.926Z" transform="translate(0 0.000001)" fill="#000072"/></g><g><ellipse rx="44.871" ry="59.193" transform="translate(1849.82 2205.99)" fill="#000072"/></g><g><g><ellipse rx="13.557" ry="19.877" transform="translate(1861.28 2192.26)" fill="#fff"/></g><g><path d="M1861.28,2214.848c-9.126,0-16.27-9.924-16.27-22.59s7.144-22.588,16.27-22.588c9.121,0,16.265,9.922,16.265,22.588s-7.144,22.59-16.265,22.59Zm0-39.754c-5.879,0-10.85,7.859-10.85,17.163s4.971,17.166,10.85,17.166s10.845-7.861,10.845-17.166-4.966-17.163-10.845-17.163Z" fill="#000072"/></g></g><g><ellipse rx="44.871" ry="59.193" transform="translate(2160.07 2205.99)" fill="#000072"/></g><g><g><ellipse rx="13.557" ry="19.877" transform="translate(2148.61 2192.26)" fill="#fff"/></g><g><path d="M2148.609,2214.848c-9.126,0-16.27-9.924-16.27-22.59s7.144-22.588,16.27-22.588c9.121,0,16.265,9.922,16.265,22.588s-7.144,22.59-16.265,22.59Zm0-39.754c-5.879,0-10.85,7.859-10.85,17.163s4.971,17.166,10.85,17.166s10.845-7.861,10.845-17.166-4.966-17.163-10.845-17.163Z" fill="#000072"/></g></g></g></g></g><g><g><g><path d="M2656.068,3259.125c-6.958,34.406-25.576,64.013-51.249,85.031-25.672,20.969-58.398,33.35-93.524,33.35h-997.428c-70.251,0-130.809-49.521-144.773-118.381h1286.974Z" fill="#c6d3e3"/></g><g><path d="M2511.295,3380.217h-997.427c-71.26,0-133.267-50.701-147.432-120.552l-.659-3.252h1293.608l-.659,3.25c-6.855,33.894-25.391,64.646-52.188,86.589-26.816,21.902-60.639,33.965-95.243,33.965ZM1372.447,3261.838c14.893,65.649,73.838,112.954,141.421,112.954h997.427c33.354,0,65.962-11.626,91.812-32.737c24.971-20.449,42.5-48.835,49.609-80.217h-1280.269Z" fill="#000072"/></g></g><g><path d="M2511.314,3393.771h-997.437c-77.69,0-145.273-55.261-160.703-131.401-.972-4.783.259-9.749,3.349-13.528c3.091-3.779,7.71-5.969,12.593-5.969h1286.964c4.883,0,9.502,2.19,12.593,5.969s4.321,8.745,3.35,13.53c-15.435,76.138-83.023,131.399-160.709,131.399ZM1390.616,3275.407c18.828,50.747,67.837,85.83,123.262,85.83h997.437c55.42,0,104.429-35.09,123.267-85.83h-1243.966Z" fill="#000072"/></g><g opacity="0.3"><path d="M2656.068,3259.125c-6.958,34.406-25.576,64.013-51.249,85.031-25.672,20.969-58.398,33.35-93.524,33.35h-616.951c101.394-4.799,191.27-32.774,268.623-86.134c0,0,5.327-13.004,17.131-32.246h475.97v-.001Z" fill="#000072"/></g><g><g><path d="M2655.684,2633.681l-52.064,593.677c-3.167,36.229-33.494,64.013-69.867,64.013h-1042.343c-36.325,0-66.652-27.783-69.867-64.013l-52.016-593.677c-5.134-58.303,40.836-108.495,99.33-108.495h1087.449c19.146,0,36.949,5.374,52.064,14.635c31.095,19.098,50.769,54.656,47.314,93.86Z" fill="#c6d3e3"/></g><g><path d="M2533.751,3294.084h-1042.339c-38.008,0-69.209-28.584-72.568-66.487l-52.017-593.679c-2.515-28.545,7.148-57.041,26.509-78.186c19.355-21.135,46.885-33.259,75.522-33.259h1087.446c18.931,0,37.422,5.2,53.481,15.037c33.413,20.522,52.031,57.466,48.599,96.411v-.002l-52.065,593.677c-3.31,37.904-34.507,66.488-72.568,66.488ZM1468.858,2527.897c-27.124,0-53.193,11.479-71.523,31.499-18.34,20.022-27.49,47.012-25.107,74.048l52.017,593.677c3.11,35.083,31.987,61.538,67.168,61.538h1042.339c35.229,0,64.102-26.455,67.168-61.538l52.065-593.679c3.252-36.882-14.385-71.873-46.035-91.311-15.2-9.312-32.715-14.233-50.645-14.233h-1087.447v-.001Z" fill="#000072"/></g></g><g opacity="0.75"><path d="M2639.081,2569.236c-12.716-5.95-26.92-9.261-41.987-9.261h-1087.45c-58.495,0-104.465,50.193-99.33,108.495l52.016,593.677c.816,9.261,3.407,17.947,7.438,25.768-26.104-8.445-45.682-31.862-48.226-60.558l-52.016-593.677c-5.134-58.303,40.836-108.495,99.33-108.495h1087.449c34.646.001,64.925,17.611,82.776,44.051Z" fill="#fff"/></g><g><path d="M2533.77,3307.619h-1042.348c-45.122,0-82.124-33.899-86.069-78.85l-52.056-593.687c-2.832-32.322,8.11-64.583,30.029-88.508c21.919-23.923,53.101-37.644,85.547-37.644h1087.446c32.446,0,63.628,13.721,85.547,37.644c21.919,23.926,32.861,56.187,30.029,88.508l-52.056,593.684c-3.94,44.954-40.942,78.853-86.069,78.853ZM1468.873,2541.464c-23.691,0-45.552,9.622-61.558,27.09-16.001,17.468-23.677,40.085-21.606,63.687l52.056,593.684c2.461,28.025,25.527,49.16,53.657,49.16h1042.348c28.135,0,51.201-21.135,53.657-49.16l52.056-593.684c2.07-23.601-5.605-46.218-21.606-63.687-16.006-17.468-37.866-27.09-61.558-27.09h-1087.446Z" fill="#000072"/></g><g opacity="0.3"><path d="M2655.684,2633.681l-52.064,593.677c-3.167,36.229-33.494,64.013-69.867,64.013h-940.229c578.562-45.538,936.535-279.276,1014.655-751.598l.192.048c31.094,19.098,50.768,54.656,47.313,93.86Z" fill="#000072"/></g><g opacity="0.3"><path d="M1631.858,3023.498l-65.295,6.111c-16.931,1.585-31.941-10.856-33.526-27.788l-22.431-239.68c-1.585-16.931,10.856-31.941,27.788-33.526l65.295-6.111c16.931-1.585,31.941,10.856,33.526,27.788l22.431,239.68c1.584,16.931-10.857,31.941-27.788,33.526Z" fill="#fff"/></g></g></g></g></g>
<script><![CDATA[
!function(t,n){"object"==typeof exports&&"undefined"!=typeof module?module.exports=n():"function"==typeof __SVGATOR_DEFINE__&&__SVGATOR_DEFINE__.amd?__SVGATOR_DEFINE__(n):((t="undefined"!=typeof globalThis?globalThis:t||self).__SVGATOR_PLAYER__=t.__SVGATOR_PLAYER__||{},t.__SVGATOR_PLAYER__["5c7f360c"]=n())}(this,(function(){"use strict";function t(t,n){var e=Object.keys(t);if(Object.getOwnPropertySymbols){var r=Object.getOwnPropertySymbols(t);n&&(r=r.filter((function(n){return Object.getOwnPropertyDescriptor(t,n).enumerable}))),e.push.apply(e,r)}return e}function n(n){for(var e=1;e<arguments.length;e++){var r=null!=arguments[e]?arguments[e]:{};e%2?t(Object(r),!0).forEach((function(t){o(n,t,r[t])})):Object.getOwnPropertyDescriptors?Object.defineProperties(n,Object.getOwnPropertyDescriptors(r)):t(Object(r)).forEach((function(t){Object.defineProperty(n,t,Object.getOwnPropertyDescriptor(r,t))}))}return n}function e(t){return(e="function"==typeof Symbol&&"symbol"==typeof Symbol.iterator?function(t){return typeof t}:function(t){return t&&"function"==typeof Symbol&&t.constructor===Symbol&&t!==Symbol.prototype?"symbol":typeof t})(t)}function r(t,n){if(!(t instanceof n))throw new TypeError("Cannot call a class as a function")}function i(t,n){for(var e=0;e<n.length;e++){var r=n[e];r.enumerable=r.enumerable||!1,r.configurable=!0,"value"in r&&(r.writable=!0),Object.defineProperty(t,r.key,r)}}function u(t,n,e){return n&&i(t.prototype,n),e&&i(t,e),t}function o(t,n,e){return n in t?Object.defineProperty(t,n,{value:e,enumerable:!0,configurable:!0,writable:!0}):t[n]=e,t}function a(t){return(a=Object.setPrototypeOf?Object.getPrototypeOf:function(t){return t.__proto__||Object.getPrototypeOf(t)})(t)}function l(t,n){return(l=Object.setPrototypeOf||function(t,n){return t.__proto__=n,t})(t,n)}function s(){if("undefined"==typeof Reflect||!Reflect.construct)return!1;if(Reflect.construct.sham)return!1;if("function"==typeof Proxy)return!0;try{return Boolean.prototype.valueOf.call(Reflect.construct(Boolean,[],(function(){}))),!0}catch(t){return!1}}function f(t,n,e){return(f=s()?Reflect.construct:function(t,n,e){var r=[null];r.push.apply(r,n);var i=new(Function.bind.apply(t,r));return e&&l(i,e.prototype),i}).apply(null,arguments)}function c(t,n){if(n&&("object"==typeof n||"function"==typeof n))return n;if(void 0!==n)throw new TypeError("Derived constructors may only return object or undefined");return function(t){if(void 0===t)throw new ReferenceError("this hasn't been initialised - super() hasn't been called");return t}(t)}function h(t,n,e){return(h="undefined"!=typeof Reflect&&Reflect.get?Reflect.get:function(t,n,e){var r=function(t,n){for(;!Object.prototype.hasOwnProperty.call(t,n)&&null!==(t=a(t)););return t}(t,n);if(r){var i=Object.getOwnPropertyDescriptor(r,n);return i.get?i.get.call(e):i.value}})(t,n,e||t)}function v(t){return function(t){if(Array.isArray(t))return d(t)}(t)||function(t){if("undefined"!=typeof Symbol&&null!=t[Symbol.iterator]||null!=t["@@iterator"])return Array.from(t)}(t)||function(t,n){if(!t)return;if("string"==typeof t)return d(t,n);var e=Object.prototype.toString.call(t).slice(8,-1);"Object"===e&&t.constructor&&(e=t.constructor.name);if("Map"===e||"Set"===e)return Array.from(t);if("Arguments"===e||/^(?:Ui|I)nt(?:8|16|32)(?:Clamped)?Array$/.test(e))return d(t,n)}(t)||function(){throw new TypeError("Invalid attempt to spread non-iterable instance.\nIn order to be iterable, non-array objects must have a [Symbol.iterator]() method.")}()}function d(t,n){(null==n||n>t.length)&&(n=t.length);for(var e=0,r=new Array(n);e<n;e++)r[e]=t[e];return r}function y(t,n,e){if(Number.isInteger(t))return t;var r=Math.pow(10,n);return Math[e]((+t+Number.EPSILON)*r)/r}Number.isInteger||(Number.isInteger=function(t){return"number"==typeof t&&isFinite(t)&&Math.floor(t)===t}),Number.EPSILON||(Number.EPSILON=2220446049250313e-31);var g=p(Math.pow(10,-6));function p(t){var n=arguments.length>1&&void 0!==arguments[1]?arguments[1]:6;return y(t,n,"round")}function m(t,n){var e=arguments.length>2&&void 0!==arguments[2]?arguments[2]:g;return Math.abs(t-n)<e}p(Math.pow(10,-2)),p(Math.pow(10,-4));var b=Math.PI/180;function w(t){return t*b}function A(t){return t/b}function k(t){return t}function _(t,n,e){var r=1-e;return 3*e*r*(t*r+n*e)+e*e*e}function x(){var t=arguments.length>0&&void 0!==arguments[0]?arguments[0]:0,n=arguments.length>1&&void 0!==arguments[1]?arguments[1]:0,e=arguments.length>2&&void 0!==arguments[2]?arguments[2]:1,r=arguments.length>3&&void 0!==arguments[3]?arguments[3]:1;return t<0||t>1||e<0||e>1?null:m(t,n)&&m(e,r)?k:function(i){if(i<=0)return t>0?i*n/t:0===n&&e>0?i*r/e:0;if(i>=1)return e<1?1+(i-1)*(r-1)/(e-1):1===e&&t<1?1+(i-1)*(n-1)/(t-1):1;for(var u,o=0,a=1;o<a;){var l=_(t,e,u=(o+a)/2);if(m(i,l))break;l<i?o=u:a=u}return _(n,r,u)}}function S(){return 1}function O(t){return 1===t?1:0}function E(){var t=arguments.length>0&&void 0!==arguments[0]?arguments[0]:1,n=arguments.length>1&&void 0!==arguments[1]?arguments[1]:0;if(1===t){if(0===n)return O;if(1===n)return S}var e=1/t;return function(t){return t>=1?1:(t+=n*e)-t%e}}var M=Math.sin,j=Math.cos,I=Math.acos,B=Math.asin,P=Math.tan,N=Math.atan2,R=Math.sqrt,T=function(){function t(){var n=arguments.length>0&&void 0!==arguments[0]?arguments[0]:1,e=arguments.length>1&&void 0!==arguments[1]?arguments[1]:0,i=arguments.length>2&&void 0!==arguments[2]?arguments[2]:0,u=arguments.length>3&&void 0!==arguments[3]?arguments[3]:1,o=arguments.length>4&&void 0!==arguments[4]?arguments[4]:0,a=arguments.length>5&&void 0!==arguments[5]?arguments[5]:0;r(this,t),this.m=[n,e,i,u,o,a],this.i=null,this.w=null,this.s=null}return u(t,[{key:"determinant",get:function(){var t=this.m;return t[0]*t[3]-t[1]*t[2]}},{key:"isIdentity",get:function(){if(null===this.i){var t=this.m;this.i=1===t[0]&&0===t[1]&&0===t[2]&&1===t[3]&&0===t[4]&&0===t[5]}return this.i}},{key:"point",value:function(t,n){var e=this.m;return{x:e[0]*t+e[2]*n+e[4],y:e[1]*t+e[3]*n+e[5]}}},{key:"translateSelf",value:function(){var t=arguments.length>0&&void 0!==arguments[0]?arguments[0]:0,n=arguments.length>1&&void 0!==arguments[1]?arguments[1]:0;if(!t&&!n)return this;var e=this.m;return e[4]+=e[0]*t+e[2]*n,e[5]+=e[1]*t+e[3]*n,this.w=this.s=this.i=null,this}},{key:"rotateSelf",value:function(){var t=arguments.length>0&&void 0!==arguments[0]?arguments[0]:0;if(t%=360){t=w(t);var n=M(t),e=j(t),r=this.m,i=r[0],u=r[1];r[0]=i*e+r[2]*n,r[1]=u*e+r[3]*n,r[2]=r[2]*e-i*n,r[3]=r[3]*e-u*n,this.w=this.s=this.i=null}return this}},{key:"scaleSelf",value:function(){var t=arguments.length>0&&void 0!==arguments[0]?arguments[0]:1,n=arguments.length>1&&void 0!==arguments[1]?arguments[1]:1;if(1!==t||1!==n){var e=this.m;e[0]*=t,e[1]*=t,e[2]*=n,e[3]*=n,this.w=this.s=this.i=null}return this}},{key:"skewSelf",value:function(t,n){if(n%=360,(t%=360)||n){var e=this.m,r=e[0],i=e[1],u=e[2],o=e[3];t&&(t=P(w(t)),e[2]+=r*t,e[3]+=i*t),n&&(n=P(w(n)),e[0]+=u*n,e[1]+=o*n),this.w=this.s=this.i=null}return this}},{key:"resetSelf",value:function(){var t=arguments.length>0&&void 0!==arguments[0]?arguments[0]:1,n=arguments.length>1&&void 0!==arguments[1]?arguments[1]:0,e=arguments.length>2&&void 0!==arguments[2]?arguments[2]:0,r=arguments.length>3&&void 0!==arguments[3]?arguments[3]:1,i=arguments.length>4&&void 0!==arguments[4]?arguments[4]:0,u=arguments.length>5&&void 0!==arguments[5]?arguments[5]:0,o=this.m;return o[0]=t,o[1]=n,o[2]=e,o[3]=r,o[4]=i,o[5]=u,this.w=this.s=this.i=null,this}},{key:"recomposeSelf",value:function(){var t=arguments.length>0&&void 0!==arguments[0]?arguments[0]:null,n=arguments.length>1&&void 0!==arguments[1]?arguments[1]:null,e=arguments.length>2&&void 0!==arguments[2]?arguments[2]:null,r=arguments.length>3&&void 0!==arguments[3]?arguments[3]:null,i=arguments.length>4&&void 0!==arguments[4]?arguments[4]:null;return this.isIdentity||this.resetSelf(),t&&(t.x||t.y)&&this.translateSelf(t.x,t.y),n&&this.rotateSelf(n),e&&(e.x&&this.skewSelf(e.x,0),e.y&&this.skewSelf(0,e.y)),!r||1===r.x&&1===r.y||this.scaleSelf(r.x,r.y),i&&(i.x||i.y)&&this.translateSelf(i.x,i.y),this}},{key:"decompose",value:function(){var t=arguments.length>0&&void 0!==arguments[0]?arguments[0]:0,n=arguments.length>1&&void 0!==arguments[1]?arguments[1]:0,e=this.m,r=e[0]*e[0]+e[1]*e[1],i=[[e[0],e[1]],[e[2],e[3]]],u=R(r);if(0===u)return{origin:{x:p(e[4]),y:p(e[5])},translate:{x:p(t),y:p(n)},scale:{x:0,y:0},skew:{x:0,y:0},rotate:0};i[0][0]/=u,i[0][1]/=u;var o=e[0]*e[3]-e[1]*e[2]<0;o&&(u=-u);var a=i[0][0]*i[1][0]+i[0][1]*i[1][1];i[1][0]-=i[0][0]*a,i[1][1]-=i[0][1]*a;var l,s=R(i[1][0]*i[1][0]+i[1][1]*i[1][1]);return 0===s?{origin:{x:p(e[4]),y:p(e[5])},translate:{x:p(t),y:p(n)},scale:{x:p(u),y:0},skew:{x:0,y:0},rotate:0}:(i[1][0]/=s,i[1][1]/=s,a/=s,i[1][1]<0?(l=A(I(i[1][1])),i[0][1]<0&&(l=360-l)):l=A(B(i[0][1])),o&&(l=-l),a=A(N(a,R(i[0][0]*i[0][0]+i[0][1]*i[0][1]))),o&&(a=-a),{origin:{x:p(e[4]),y:p(e[5])},translate:{x:p(t),y:p(n)},scale:{x:p(u),y:p(s)},skew:{x:p(a),y:0},rotate:p(l)})}},{key:"multiply",value:function(t){return this.clone().multiplySelf(t)}},{key:"preMultiply",value:function(t){return t.multiply(this)}},{key:"multiplySelf",value:function(t){var n=F(this.m,t.m),e=n.a,r=n.b,i=n.c,u=n.d,o=n.tx,a=n.ty;return this.resetSelf(e,r,i,u,o,a),this}},{key:"preMultiplySelf",value:function(t){var n=F(t.m,this.m),e=n.a,r=n.b,i=n.c,u=n.d,o=n.tx,a=n.ty;return this.resetSelf(e,r,i,u,o,a),this}},{key:"clone",value:function(){var t=this.m;return new this.constructor(t[0],t[1],t[2],t[3],t[4],t[5])}},{key:"toString",value:function(){var t=arguments.length>0&&void 0!==arguments[0]?arguments[0]:" ";if(null===this.s){var n=this.m.map((function(t){return p(t)}));1===n[0]&&0===n[1]&&0===n[2]&&1===n[3]?this.s="translate("+n[4]+t+n[5]+")":this.s="matrix("+n.join(t)+")"}return this.s}}],[{key:"create",value:function(t){return t?Array.isArray(t)?f(this,v(t)):t instanceof this?t.clone():(new this).recomposeSelf(t.origin,t.rotate,t.skew,t.scale,t.translate):new this}}]),t}();function F(t,n){return{a:t[0]*n[0]+t[2]*n[1],b:t[1]*n[0]+t[3]*n[1],c:t[0]*n[2]+t[2]*n[3],d:t[1]*n[2]+t[3]*n[3],tx:t[0]*n[4]+t[2]*n[5]+t[4],ty:t[1]*n[4]+t[3]*n[5]+t[5]}}function C(t,n,e){return t>=.5?e:n}function D(t,n,e){return 0===t||n===e?n:t*(e-n)+n}function L(t,n,e){var r=D(t,n,e);return r<=0?0:r}function V(t,n,e){var r=D(t,n,e);return r<=0?0:r>=1?1:r}function q(t,n,e){return 0===t?n:1===t?e:{x:D(t,n.x,e.x),y:D(t,n.y,e.y)}}function G(t,n,e){return 0===t?n:1===t?e:{x:L(t,n.x,e.x),y:L(t,n.y,e.y)}}function z(t,n,e){var r=function(t,n,e){return Math.round(D(t,n,e))}(t,n,e);return r<=0?0:r>=255?255:r}function Y(t,n,e){return 0===t?n:1===t?e:{r:z(t,n.r,e.r),g:z(t,n.g,e.g),b:z(t,n.b,e.b),a:D(t,null==n.a?1:n.a,null==e.a?1:e.a)}}function U(t,n,e){var r=n.length;if(r!==e.length)return C(t,n,e);for(var i=new Array(r),u=0;u<r;u++)i[u]=D(t,n[u],e[u]);return i}function W(t,n){for(var e=[],r=0;r<t;r++)e.push(n);return e}function $(t,n){if(--n<=0)return t;var e=(t=Object.assign([],t)).length;do{for(var r=0;r<e;r++)t.push(t[r])}while(--n>0);return t}var H,Q=function(){function t(n){r(this,t),this.list=n,this.length=n.length}return u(t,[{key:"setAttribute",value:function(t,n){for(var e=this.list,r=0;r<this.length;r++)e[r].setAttribute(t,n)}},{key:"removeAttribute",value:function(t){for(var n=this.list,e=0;e<this.length;e++)n[e].removeAttribute(t)}},{key:"style",value:function(t,n){for(var e=this.list,r=0;r<this.length;r++)e[r].style[t]=n}}]),t}(),X=/-./g,J=function(t,n){return n.toUpperCase()};function Z(t){return"function"==typeof t?t:C}function K(t){return t?"function"==typeof t?t:Array.isArray(t)?function(t){var n=arguments.length>1&&void 0!==arguments[1]?arguments[1]:k;if(!Array.isArray(t))return n;switch(t.length){case 1:return E(t[0])||n;case 2:return E(t[0],t[1])||n;case 4:return x(t[0],t[1],t[2],t[3])||n}return n}(t,null):function(t,n){var e=arguments.length>2&&void 0!==arguments[2]?arguments[2]:k;switch(t){case"linear":return k;case"steps":return E(n.steps||1,n.jump||0)||e;case"bezier":case"cubic-bezier":return x(n.x1||0,n.y1||0,n.x2||0,n.y2||0)||e}return e}(t.type,t.value,null):null}function tt(t,n,e){var r=arguments.length>3&&void 0!==arguments[3]&&arguments[3],i=n.length-1;if(t<=n[0].t)return r?[0,0,n[0].v]:n[0].v;if(t>=n[i].t)return r?[i,1,n[i].v]:n[i].v;var u,o=n[0],a=null;for(u=1;u<=i;u++){if(!(t>n[u].t)){a=n[u];break}o=n[u]}return null==a?r?[i,1,n[i].v]:n[i].v:o.t===a.t?r?[u,1,a.v]:a.v:(t=(t-o.t)/(a.t-o.t),o.e&&(t=o.e(t)),r?[u,t,e(t,o.v,a.v)]:e(t,o.v,a.v))}function nt(t,n){var e=arguments.length>2&&void 0!==arguments[2]?arguments[2]:null;return t&&t.length?"function"!=typeof n?null:("function"!=typeof e&&(e=null),function(r){var i=tt(r,t,n);return null!=i&&e&&(i=e(i)),i}):null}function et(t,n){return t.t-n.t}function rt(t,n,r,i,u){var o,a="@"===r[0],l="#"===r[0],s=H[r],f=C;switch(a?(o=r.substr(1),r=o.replace(X,J)):l&&(r=r.substr(1)),e(s)){case"function":if(f=s(i,u,tt,K,r,a,n,t),l)return f;break;case"string":f=nt(i,Z(s));break;case"object":if((f=nt(i,Z(s.i),s.f))&&"function"==typeof s.u)return s.u(n,f,r,a,t)}return f?function(t,n,e){if(arguments.length>3&&void 0!==arguments[3]&&arguments[3])return t instanceof Q?function(r){return t.style(n,e(r))}:function(r){return t.style[n]=e(r)};if(Array.isArray(n)){var r=n.length;return function(i){var u=e(i);if(null==u)for(var o=0;o<r;o++)t[o].removeAttribute(n);else for(var a=0;a<r;a++)t[a].setAttribute(n,u)}}return function(r){var i=e(r);null==i?t.removeAttribute(n):t.setAttribute(n,i)}}(n,r,f,a):null}function it(t,n,r,i){if(!i||"object"!==e(i))return null;var u=null,o=null;return Array.isArray(i)?o=function(t){if(!t||!t.length)return null;for(var n=0;n<t.length;n++)t[n].e&&(t[n].e=K(t[n].e));return t.sort(et)}(i):(o=i.keys,u=i.data||null),o?rt(t,n,r,o,u):null}function ut(t,n,e){if(!e)return null;var r=[];for(var i in e)if(e.hasOwnProperty(i)){var u=it(t,n,i,e[i]);u&&r.push(u)}return r.length?r:null}function ot(t,n){if(!n.settings.duration||n.settings.duration<0)return null;var e,r,i,u,o,a=function(t,n){if(!n)return null;var e=[];if(Array.isArray(n))for(var r=n.length,i=0;i<r;i++){var u=n[i];if(2===u.length){var o=null;if("string"==typeof u[0])o=t.getElementById(u[0]);else if(Array.isArray(u[0])){o=[];for(var a=0;a<u[0].length;a++)if("string"==typeof u[0][a]){var l=t.getElementById(u[0][a]);l&&o.push(l)}o=o.length?1===o.length?o[0]:new Q(o):null}if(o){var s=ut(t,o,u[1]);s&&(e=e.concat(s))}}}else for(var f in n)if(n.hasOwnProperty(f)){var c=t.getElementById(f);if(c){var h=ut(t,c,n[f]);h&&(e=e.concat(h))}}return e.length?e:null}(t,n.elements);return a?(e=a,r=n.settings,i=r.duration,u=e.length,o=null,function(t,n){var a=r.iterations||1/0,l=(r.alternate&&a%2==0)^r.direction>0?i:0,s=t%i,f=1+(t-s)/i;n*=r.direction,r.alternate&&f%2==0&&(n=-n);var c=!1;if(f>a)s=l,c=!0,-1===r.fill&&(s=r.direction>0?0:i);else if(n<0&&(s=i-s),s===o)return!1;o=s;for(var h=0;h<u;h++)e[h](s);return c}):null}function at(t,n){for(var e=n.querySelectorAll("svg"),r=0;r<e.length;r++)if(e[r].id===t.root&&!e[r].svgatorAnimation)return e[r].svgatorAnimation=!0,e[r];return null}function lt(t){var n=function(t){return t.shadowRoot};return document?Array.from(t.querySelectorAll(":not("+["a","area","audio","br","canvas","circle","datalist","embed","g","head","hr","iframe","img","input","link","object","path","polygon","rect","script","source","style","svg","title","track","video"].join()+")")).filter(n).map(n):[]}function st(t){var n=arguments.length>1&&void 0!==arguments[1]?arguments[1]:document,e=arguments.length>2&&void 0!==arguments[2]?arguments[2]:0,r=at(t,n);if(r)return r;if(e>=20)return null;for(var i=lt(n),u=0;u<i.length;u++){var o=st(t,i[u],e+1);if(o)return o}return null}function ft(t,n){if(H=n,!t||!t.root||!Array.isArray(t.animations))return null;var e=st(t);if(!e)return null;var r=t.animations.map((function(t){return ot(e,t)})).filter((function(t){return!!t}));return r.length?{svg:e,animations:r,animationSettings:t.animationSettings,options:t.options||void 0}:null}function ct(t){var n=arguments.length>1&&void 0!==arguments[1]?arguments[1]:null,e=arguments.length>2&&void 0!==arguments[2]?arguments[2]:Number,r=arguments.length>3&&void 0!==arguments[3]?arguments[3]:"undefined"!=typeof BigInt&&BigInt,i="0x"+(t.replace(/[^0-9a-fA-F]+/g,"")||27);return n&&r&&e.isSafeInteger&&!e.isSafeInteger(+i)?e(r(i))%n+n:+i}function ht(t,n,e){return!t||!e||n>t.length?t:t.substring(0,n)+ht(t.substring(n+1),e,e)}function vt(t){var n=arguments.length>1&&void 0!==arguments[1]?arguments[1]:27;return!t||t%n?t%n:[0,1].includes(n)?n:vt(t/n,n)}function dt(t,n,e){if(t&&t.length){var r=ct(e),i=vt(r)+5,u=ht(t,vt(r,5),i);return u=u.replace(/\x7c$/g,"==").replace(/\x2f$/g,"="),u=function(t,n,e){var r=+("0x"+t.substring(0,4));t=t.substring(4);for(var i=ct(n,r)%r+e%27,u=[],o=0;o<t.length;o+=2)if("|"!==t[o]){var a=+("0x"+t[o]+t[o+1])-i;u.push(a)}else{var l=+("0x"+t.substring(o+1,o+1+4))-i;o+=3,u.push(l)}return String.fromCharCode.apply(String,u)}(u=(u=atob(u)).replace(/[\x41-\x5A]/g,""),n,r),u=JSON.parse(u)}}var yt=[{key:"alternate",def:!1},{key:"fill",def:1},{key:"iterations",def:0},{key:"direction",def:1},{key:"speed",def:1},{key:"fps",def:100}],gt=function(){function t(n,e){var i=this,u=arguments.length>2&&void 0!==arguments[2]?arguments[2]:null;r(this,t),this._id=0,this._running=!1,this._rollingBack=!1,this._animations=n,this._settings=e,(!u||u<"2022-05-02")&&delete this._settings.speed,yt.forEach((function(t){i._settings[t.key]=i._settings[t.key]||t.def})),this.duration=e.duration,this.offset=e.offset||0,this.rollbackStartOffset=0}return u(t,[{key:"alternate",get:function(){return this._settings.alternate}},{key:"fill",get:function(){return this._settings.fill}},{key:"iterations",get:function(){return this._settings.iterations}},{key:"direction",get:function(){return this._settings.direction}},{key:"speed",get:function(){return this._settings.speed}},{key:"fps",get:function(){return this._settings.fps}},{key:"maxFiniteDuration",get:function(){return this.iterations>0?this.iterations*this.duration:this.duration}},{key:"_apply",value:function(t){for(var n=arguments.length>1&&void 0!==arguments[1]?arguments[1]:{},e=this._animations,r=e.length,i=0,u=0;u<r;u++)n[u]?i++:(n[u]=e[u](t,1),n[u]&&i++);return i}},{key:"_rollback",value:function(t){var n=this,e=1/0,r=null;this.rollbackStartOffset=t,this._rollingBack=!0,this._running=!0;this._id=window.requestAnimationFrame((function i(u){if(n._rollingBack){null==r&&(r=u);var o=Math.round(t-(u-r)*n.speed);if(o>n.duration&&e!==1/0){var a=!!n.alternate&&o/n.duration%2>1,l=o%n.duration;o=(l+=a?n.duration:0)||n.duration}var s=(n.fps?1e3/n.fps:0)*n.speed,f=Math.max(0,o);f<=e-s&&(n.offset=f,e=f,n._apply(f));var c=n.iterations>0&&-1===n.fill&&o>=n.maxFiniteDuration;(o<=0||n.offset<o||c)&&n.stop(),n._id=window.requestAnimationFrame(i)}}))}},{key:"_start",value:function(){var t=this,n=arguments.length>0&&void 0!==arguments[0]?arguments[0]:0,e=-1/0,r=null,i={};this._running=!0;var u=function u(o){null==r&&(r=o);var a=Math.round((o-r)*t.speed+n),l=(t.fps?1e3/t.fps:0)*t.speed;if(a>=e+l&&!t._rollingBack&&(t.offset=a,e=a,t._apply(a,i)===t._animations.length))return void t.pause(!0);t._id=window.requestAnimationFrame(u)};this._id=window.requestAnimationFrame(u)}},{key:"_pause",value:function(){this._id&&window.cancelAnimationFrame(this._id),this._running=!1}},{key:"play",value:function(){if(!this._running)return this._rollingBack?this._rollback(this.offset):this._start(this.offset)}},{key:"stop",value:function(){this._pause(),this.offset=0,this.rollbackStartOffset=0,this._rollingBack=!1,this._apply(0)}},{key:"reachedToEnd",value:function(){return this.iterations>0&&this.offset>=this.iterations*this.duration}},{key:"restart",value:function(){var t=arguments.length>0&&void 0!==arguments[0]&&arguments[0];this.stop(t),this.play(t)}},{key:"pause",value:function(){this._pause()}},{key:"toggle",value:function(){return this._running?this.pause():this.reachedToEnd()?this.restart():this.play()}},{key:"trigger",value:function(t,n){}},{key:"_adjustOffset",value:function(){var t=arguments.length>0&&void 0!==arguments[0]&&arguments[0],n=this.alternate?2*this.duration:this.duration;if(t){if(!this._rollingBack&&0===this.offset)return void(this.offset=n);this._rollingBack&&(this.offset,this.maxFiniteDuration)}!this._rollingBack||this.rollbackStartOffset<=this.duration?0!==this.iterations&&(this.offset=Math.min(this.offset,this.maxFiniteDuration)):(this.offset=this.rollbackStartOffset-(this.rollbackStartOffset-this.offset)%n,this.rollbackStartOffset=0)}},{key:"reverse",value:function(){var t=arguments.length>0&&void 0!==arguments[0]&&arguments[0];if(!this._running)return this._adjustOffset(t),this._rollingBack=!this._rollingBack,t&&this.play(!1),void this.trigger("reverse",this.offset);this.pause(!1,!1),this._adjustOffset(),this._rollingBack=!this._rollingBack,this.play(!1),this.trigger("reverse",this.offset)}}],[{key:"build",value:function(t,n){delete t.animationSettings,t.options=dt(t.options,t.root,"5c7f360c"),t.animations.map((function(n){n.settings=dt(n.s,t.root,"5c7f360c"),delete n.s,t.animationSettings||(t.animationSettings=n.settings)}));var e=t.version;if(!(t=ft(t,n)))return null;var r=t.options||{},i=new this(t.animations,t.animationSettings,e);return{el:t.svg,options:r,player:i}}},{key:"push",value:function(t){return this.build(t)}},{key:"init",value:function(){var t=this,n=window.__SVGATOR_PLAYER__&&window.__SVGATOR_PLAYER__["5c7f360c"];Array.isArray(n)&&n.splice(0).forEach((function(n){return t.build(n)}))}}]),t}();function pt(t){return p(t)+""}function mt(t){var n=arguments.length>1&&void 0!==arguments[1]?arguments[1]:" ";return t&&t.length?t.map(pt).join(n):""}function bt(t){return pt(t.x)+","+pt(t.y)}function wt(t){return t?null==t.a||t.a>=1?function(t){if(!t)return"transparent";var n=function(t){return parseInt(t).toString(16).padStart(2,"0")};return function(t){for(var n=[],e="#"===t[0]?n.push("#"):0;e<t.length;e+=2){if(t[e]!==t[e+1])return t;n.push(t[e])}return n.join("")}("#"+n(t.r)+n(t.g)+n(t.b)+(null==t.a||t.a>=1?"":n(255*t.a)))}(t):"rgba("+t.r+","+t.g+","+t.b+","+t.a+")":"transparent"}function At(t){return t?"url(#"+t+")":"none"}!function(){for(var t=0,n=["ms","moz","webkit","o"],e=0;e<n.length&&!window.requestAnimationFrame;++e)window.requestAnimationFrame=window[n[e]+"RequestAnimationFrame"],window.cancelAnimationFrame=window[n[e]+"CancelAnimationFrame"]||window[n[e]+"CancelRequestAnimationFrame"];window.requestAnimationFrame||(window.requestAnimationFrame=function(n){var e=Date.now(),r=Math.max(0,16-(e-t)),i=window.setTimeout((function(){n(e+r)}),r);return t=e+r,i},window.cancelAnimationFrame=window.clearTimeout)}();var kt={f:null,i:G,u:function(t,n){return function(e){var r=n(e);t.setAttribute("rx",pt(r.x)),t.setAttribute("ry",pt(r.y))}}},_t={f:null,i:function(t,n,e){return 0===t?n:1===t?e:{width:L(t,n.width,e.width),height:L(t,n.height,e.height)}},u:function(t,n){return function(e){var r=n(e);t.setAttribute("width",pt(r.width)),t.setAttribute("height",pt(r.height))}}};Object.freeze({M:2,L:2,Z:0,H:1,V:1,C:6,Q:4,T:2,S:4,A:7});var xt={},St=null;function Ot(t){var n=function(){if(St)return St;if("object"!==("undefined"==typeof document?"undefined":e(document))||!document.createElementNS)return{};var t=document.createElementNS("http://www.w3.org/2000/svg","svg");return t&&t.style?(t.style.position="absolute",t.style.opacity="0.01",t.style.zIndex="-9999",t.style.left="-9999px",t.style.width="1px",t.style.height="1px",St={svg:t}):{}}().svg;if(!n)return function(t){return null};var r=document.createElementNS(n.namespaceURI,"path");r.setAttributeNS(null,"d",t),r.setAttributeNS(null,"fill","none"),r.setAttributeNS(null,"stroke","none"),n.appendChild(r);var i=r.getTotalLength();return function(t){var n=r.getPointAtLength(i*t);return{x:n.x,y:n.y}}}function Et(t){return xt[t]?xt[t]:xt[t]=Ot(t)}function Mt(t,n,e,r){if(!t||!r)return!1;var i=["M",t.x,t.y];if(n&&e&&(i.push("C"),i.push(n.x),i.push(n.y),i.push(e.x),i.push(e.y)),n?!e:e){var u=n||e;i.push("Q"),i.push(u.x),i.push(u.y)}return n||e||i.push("L"),i.push(r.x),i.push(r.y),i.join(" ")}function jt(t,n,e,r){var i=arguments.length>4&&void 0!==arguments[4]?arguments[4]:1,u=Mt(t,n,e,r),o=Et(u);try{return o(i)}catch(t){return null}}function It(t,n,e){return t+(n-t)*e}function Bt(t,n,e){var r=arguments.length>3&&void 0!==arguments[3]&&arguments[3],i={x:It(t.x,n.x,e),y:It(t.y,n.y,e)};return r&&(i.a=Pt(t,n)),i}function Pt(t,n){return Math.atan2(n.y-t.y,n.x-t.x)}function Nt(t,n,e,r){var i=1-r;return i*i*t+2*i*r*n+r*r*e}function Rt(t,n,e,r){return 2*(1-r)*(n-t)+2*r*(e-n)}function Tt(t,n,e,r){var i=arguments.length>4&&void 0!==arguments[4]&&arguments[4],u=jt(t,n,null,e,r);return u||(u={x:Nt(t.x,n.x,e.x,r),y:Nt(t.y,n.y,e.y,r)}),i&&(u.a=Ft(t,n,e,r)),u}function Ft(t,n,e,r){return Math.atan2(Rt(t.y,n.y,e.y,r),Rt(t.x,n.x,e.x,r))}function Ct(t,n,e,r,i){var u=i*i;return i*u*(r-t+3*(n-e))+3*u*(t+e-2*n)+3*i*(n-t)+t}function Dt(t,n,e,r,i){var u=1-i;return 3*(u*u*(n-t)+2*u*i*(e-n)+i*i*(r-e))}function Lt(t,n,e,r,i){var u=arguments.length>5&&void 0!==arguments[5]&&arguments[5],o=jt(t,n,e,r,i);return o||(o={x:Ct(t.x,n.x,e.x,r.x,i),y:Ct(t.y,n.y,e.y,r.y,i)}),u&&(o.a=Vt(t,n,e,r,i)),o}function Vt(t,n,e,r,i){return Math.atan2(Dt(t.y,n.y,e.y,r.y,i),Dt(t.x,n.x,e.x,r.x,i))}function qt(t,n,e){var r=arguments.length>3&&void 0!==arguments[3]&&arguments[3];if(zt(n)){if(Yt(e))return Tt(n,e.start,e,t,r)}else if(zt(e)){if(Ut(n))return Tt(n,n.end,e,t,r)}else{if(Ut(n))return Yt(e)?Lt(n,n.end,e.start,e,t,r):Tt(n,n.end,e,t,r);if(Yt(e))return Tt(n,e.start,e,t,r)}return Bt(n,e,t,r)}function Gt(t,n,e){var r=qt(t,n,e,!0);return r.a=A(function(t){return arguments.length>1&&void 0!==arguments[1]&&arguments[1]?t+Math.PI:t}(r.a)),r}function zt(t){return!t.type||"corner"===t.type}function Yt(t){return null!=t.start&&!zt(t)}function Ut(t){return null!=t.end&&!zt(t)}var Wt=new T;var $t={f:function(t){return t?t.join(" "):""},i:function(t,n,r){if(0===t)return n;if(1===t)return r;var i=n.length;if(i!==r.length)return C(t,n,r);for(var u,o=new Array(i),a=0;a<i;a++){if((u=e(n[a]))!==e(r[a]))return C(t,n,r);if("number"===u)o[a]=D(t,n[a],r[a]);else{if(n[a]!==r[a])return C(t,n,r);o[a]=n[a]}}return o}},Ht={f:null,i:U,u:function(t,n){return function(e){var r=n(e);t.setAttribute("x1",pt(r[0])),t.setAttribute("y1",pt(r[1])),t.setAttribute("x2",pt(r[2])),t.setAttribute("y2",pt(r[3]))}}},Qt={f:pt,i:D},Xt={f:pt,i:V},Jt={f:function(t){var n=arguments.length>1&&void 0!==arguments[1]?arguments[1]:" ";return t&&t.length>0&&(t=t.map((function(t){return p(t,4)}))),mt(t,n)},i:function(t,n,e){var r,i,u,o=n.length,a=e.length;if(o!==a)if(0===o)n=W(o=a,0);else if(0===a)a=o,e=W(o,0);else{var l=(u=(r=o)*(i=a)/function(t,n){for(var e;n;)e=n,n=t%n,t=e;return t||1}(r,i))<0?-u:u;n=$(n,Math.floor(l/o)),e=$(e,Math.floor(l/a)),o=a=l}for(var s=[],f=0;f<o;f++)s.push(p(L(t,n[f],e[f])));return s}};function Zt(t,n,e){return t.map((function(t){return function(t,n,e){var r=t.v;if(!r||"g"!==r.t||r.s||!r.v||!r.r)return t;var i=e.getElementById(r.r),u=i&&i.querySelectorAll("stop")||[];return r.s=r.v.map((function(t,n){var e=u[n]&&u[n].getAttribute("offset");return{c:t,o:e=p(parseInt(e)/100)}})),delete r.v,t}(t,0,e)}))}var Kt={gt:"gradientTransform",c:{x:"cx",y:"cy"},rd:"r",f:{x:"x1",y:"y1"},to:{x:"x2",y:"y2"}};function tn(t,n,r,i,u,o,a,l){return Zt(t,0,l),n=function(t,n,e){for(var r,i,u,o=t.length-1,a={},l=0;l<=o;l++)(r=t[l]).e&&(r.e=n(r.e)),r.v&&"g"===(i=r.v).t&&i.r&&(u=e.getElementById(i.r))&&(a[i.r]={e:u,s:u.querySelectorAll("stop")});return a}(t,i,l),function(i){var u=r(i,t,nn);if(!u)return"none";if("c"===u.t)return wt(u.v);if("g"===u.t){if(!n[u.r])return At(u.r);var o=n[u.r];return function(t,n){for(var e=t.s,r=e.length;r<n.length;r++){var i=e[e.length-1].cloneNode();i.id=un(i.id),t.e.appendChild(i),e=t.s=t.e.querySelectorAll("stop")}for(var u=0,o=e.length,a=n.length-1;u<o;u++)e[u].setAttribute("stop-color",wt(n[Math.min(u,a)].c)),e[u].setAttribute("offset",n[Math.min(u,a)].o)}(o,u.s),Object.keys(Kt).forEach((function(t){if(void 0!==u[t])if("object"!==e(Kt[t])){var n,r="gt"===t?(n=u[t],Array.isArray(n)?"matrix("+n.join(" ")+")":""):u[t],i=Kt[t];o.e.setAttribute(i,r)}else Object.keys(Kt[t]).forEach((function(n){if(void 0!==u[t][n]){var e=u[t][n],r=Kt[t][n];o.e.setAttribute(r,e)}}))})),At(u.r)}return"none"}}function nn(t,e,r){if(0===t)return e;if(1===t)return r;if(e&&r){var i=e.t;if(i===r.t)switch(e.t){case"c":return{t:i,v:Y(t,e.v,r.v)};case"g":if(e.r===r.r){var u={t:i,s:en(t,e.s,r.s),r:e.r};return e.gt&&r.gt&&(u.gt=U(t,e.gt,r.gt)),e.c?(u.c=q(t,e.c,r.c),u.rd=L(t,e.rd,r.rd)):e.f&&(u.f=q(t,e.f,r.f),u.to=q(t,e.to,r.to)),u}}if("c"===e.t&&"g"===r.t||"c"===r.t&&"g"===e.t){var o="c"===e.t?e:r,a="g"===e.t?n({},e):n({},r),l=a.s.map((function(t){return{c:o.v,o:t.o}}));return a.s="c"===e.t?en(t,l,a.s):en(t,a.s,l),a}}return C(t,e,r)}function en(t,n,e){if(n.length===e.length)return n.map((function(n,r){return rn(t,n,e[r])}));for(var r=Math.max(n.length,e.length),i=[],u=0;u<r;u++){var o=rn(t,n[Math.min(u,n.length-1)],e[Math.min(u,e.length-1)]);i.push(o)}return i}function rn(t,n,e){return{o:V(t,n.o,e.o||0),c:Y(t,n.c,e.c||{})}}function un(t){return t.replace(/-fill-([0-9]+)$/,(function(t,n){return"-fill-"+(+n+1)}))}function on(t,n,e){return 0===t?n:1===t?e:{blur:G(t,n.blur,e.blur),offset:q(t,n.offset,e.offset),color:Y(t,n.color,e.color)}}var an={blur:G,brightness:L,contrast:L,"drop-shadow":on,"inner-shadow":on,grayscale:L,"hue-rotate":D,invert:L,opacity:L,saturate:L,sepia:L};function ln(t,n,e){if(0===t)return n;if(1===t)return e;var r=n.length;if(r!==e.length)return C(t,n,e);for(var i,u=[],o=0;o<r;o++){if(n[o].type!==e[o].type)return n;if(!(i=an[n[o].type]))return C(t,n,e);u.push({type:n.type,value:i(t,n[o].value,e[o].value)})}return u}var sn={blur:function(t){return t?function(n){t.setAttribute("stdDeviation",bt(n))}:null},brightness:function(t,n,e){return(t=cn(e,n))?function(n){n=pt(n),t.map((function(t){return t.setAttribute("slope",n)}))}:null},contrast:function(t,n,e){return(t=cn(e,n))?function(n){var e=pt((1-n)/2);n=pt(n),t.map((function(t){t.setAttribute("slope",n),t.setAttribute("intercept",e)}))}:null},"drop-shadow":function(t,n,e){var r=e.getElementById(n+"-blur");if(!r)return null;var i=e.getElementById(n+"-offset");if(!i)return null;var u=e.getElementById(n+"-flood");return u?function(t){r.setAttribute("stdDeviation",bt(t.blur)),i.setAttribute("dx",pt(t.offset.x)),i.setAttribute("dy",pt(t.offset.y)),u.setAttribute("flood-color",wt(t.color))}:null},"inner-shadow":function(t,n,e){var r=e.getElementById(n+"-blur");if(!r)return null;var i=e.getElementById(n+"-offset");if(!i)return null;var u=e.getElementById(n+"-color-matrix");return u?function(t){r.setAttribute("stdDeviation",bt(t.blur)),i.setAttribute("dx",pt(t.offset.x)),i.setAttribute("dy",pt(t.offset.y));var n=[0,0,0,0,t.color.r/255,0,0,0,0,t.color.g/255,0,0,0,0,t.color.b/255,0,0,0,t.color.a,0];u.setAttribute("values",mt(n))}:null},grayscale:function(t){return t?function(n){t.setAttribute("values",mt(function(t){return[.2126+.7874*(t=1-t),.7152-.7152*t,.0722-.0722*t,0,0,.2126-.2126*t,.7152+.2848*t,.0722-.0722*t,0,0,.2126-.2126*t,.7152-.7152*t,.0722+.9278*t,0,0,0,0,0,1,0]}(n)))}:null},"hue-rotate":function(t){return t?function(n){return t.setAttribute("values",pt(n))}:null},invert:function(t,n,e){return(t=cn(e,n))?function(n){n=pt(n)+" "+pt(1-n),t.map((function(t){return t.setAttribute("tableValues",n)}))}:null},opacity:function(t,n,e){return(t=e.getElementById(n+"-A"))?function(n){return t.setAttribute("tableValues","0 "+pt(n))}:null},saturate:function(t){return t?function(n){return t.setAttribute("values",pt(n))}:null},sepia:function(t){return t?function(n){return t.setAttribute("values",mt(function(t){return[.393+.607*(t=1-t),.769-.769*t,.189-.189*t,0,0,.349-.349*t,.686+.314*t,.168-.168*t,0,0,.272-.272*t,.534-.534*t,.131+.869*t,0,0,0,0,0,1,0]}(n)))}:null}};var fn=["R","G","B"];function cn(t,n){var e=fn.map((function(e){return t.getElementById(n+"-"+e)||null}));return-1!==e.indexOf(null)?null:e}var hn={fill:tn,"fill-opacity":Xt,stroke:tn,"stroke-opacity":Xt,"stroke-width":Qt,"stroke-dashoffset":{f:pt,i:D},"stroke-dasharray":Jt,opacity:Xt,transform:function(t,n,r,i){if(!(t=function(t,n){if(!t||"object"!==e(t))return null;var r=!1;for(var i in t)t.hasOwnProperty(i)&&(t[i]&&t[i].length?(t[i].forEach((function(t){t.e&&(t.e=n(t.e))})),r=!0):delete t[i]);return r?t:null}(t,i)))return null;var u=function(e,i,u){var o=arguments.length>3&&void 0!==arguments[3]?arguments[3]:null;return t[e]?r(i,t[e],u):n&&n[e]?n[e]:o};return n&&n.a&&t.o?function(n){var e=r(n,t.o,Gt);return Wt.recomposeSelf(e,u("r",n,D,0)+e.a,u("k",n,q),u("s",n,q),u("t",n,q)).toString()}:function(t){return Wt.recomposeSelf(u("o",t,qt,null),u("r",t,D,0),u("k",t,q),u("s",t,q),u("t",t,q)).toString()}},"#filter":function(t,n,e,r,i,u,o,a){if(!n.items||!t||!t.length)return null;var l=function(t,n){var e=(t=t.map((function(t){return t&&sn[t[0]]?(n.getElementById(t[1]),sn[t[0]](n.getElementById(t[1]),t[1],n)):null}))).length;return function(n){for(var r=0;r<e;r++)t[r]&&t[r](n[r].value)}}(n.items,a);return l?(t=function(t,n){return t.map((function(t){return t.e=n(t.e),t}))}(t,r),function(n){l(e(n,t,ln))}):null},"#line":Ht,points:{f:mt,i:U},d:$t,r:Qt,"#size":_t,"#radius":kt,_:function(t,n){if(Array.isArray(t))for(var e=0;e<t.length;e++)this[t[e]]=n;else this[t]=n}},vn=function(){function t(n,e,i){r(this,t);var u=function(t){var n,e,r,i=t&&1===(null===(n=t.ownerDocument)||void 0===n||null===(e=n.childNodes)||void 0===e?void 0:e.length)&&window.parent!==window,u={el:t,window:window};if(!i)return u;try{r=window.parent.document}catch(t){return u}return u.window=window.parent,u.el=Array.from(r.querySelectorAll("iframe,object")).filter((function(t){return t.contentWindow===window}))[0]||u.el,u}(n);e=Math.max(1,e||1),e=Math.min(e,100),this.el=u.el,this._handlers=[],this.onThresholdChange=i&&i.call?i:function(){},this.thresholdPercent=e||1,this.currentVisibility=null,this.visibilityCalculator=function(t,n){var e=arguments.length>2&&void 0!==arguments[2]?arguments[2]:e,r=!1,i=null,u=function(){for(var u=0,o=e.innerHeight,a=0,l=e.innerWidth,s=t.parentNode;s instanceof Element;){var f=e.getComputedStyle(s);if("visible"!==f.overflowY||"visible"!==f.overflowX){var c=s.getBoundingClientRect();"visible"!==f.overflowY&&(u=Math.max(u,c.top),o=Math.min(o,c.bottom)),"visible"!==f.overflowX&&(a=Math.max(a,c.left),l=Math.min(l,c.right))}if(s===s.parentNode)break;s=s.parentNode}r=!1;var h=t.getBoundingClientRect(),v=Math.min(h.height,Math.max(0,u-h.top)),d=Math.min(h.height,Math.max(0,h.bottom-o)),y=Math.min(h.width,Math.max(0,a-h.left)),g=Math.min(h.width,Math.max(0,h.right-l)),p=(h.height-v-d)/h.height,m=(h.width-y-g)/h.width,b=Math.round(p*m*100);null!==i&&i===b||(i=b,n(b))};return function(t){r&&clearTimeout(r),r=setTimeout((function(){return u()}),100)}}(this.el,this.onVisibilityUpdate.bind(this),u.window),this.bindScrollWatchers(),this.visibilityCalculator()}return u(t,[{key:"bindScrollWatchers",value:function(){for(var t=this.el.parentNode;t&&(this._handlers.push({element:t,event:"scroll",handler:this.visibilityCalculator}),t.addEventListener("scroll",this.visibilityCalculator),t!==t.parentNode&&t!==document);)t=t.parentNode}},{key:"onVisibilityUpdate",value:function(t){var n=this.currentVisibility>=this.thresholdPercent,e=t>=this.thresholdPercent;if(null===this.currentVisibility||n!==e)return this.currentVisibility=t,void this.onThresholdChange(e);this.currentVisibility=t}},{key:"destruct",value:function(){this._handlers.forEach((function(t){t.element.removeEventListener(t.event,t.handler)}))}}]),t}(),dn=function(){function t(){r(this,t)}return u(t,null,[{key:"adjustLink",value:function(t){var n,e,r=t&&1===(null===(n=t.ownerDocument)||void 0===n||null===(e=n.childNodes)||void 0===e?void 0:e.length)&&window.parent!==window,i=null==t?void 0:t.firstElementChild;r&&i&&"a"===i.tagName&&!i.getAttribute("target")&&i.setAttributeNS(null,"target","_parent")}},{key:"autoPlay",value:function(t,n,e){var r=arguments.length>3&&void 0!==arguments[3]?arguments[3]:[];if("click"===e.start){var i=function(){switch(e.click){case"freeze":return!t._running&&t.reachedToEnd()?t.restart():t.toggle();case"restart":return t.offset>0?t.restart():t.play();case"reverse":return t._running?t.reverse():t.reachedToEnd()?1===t.fill?t.reverse(!0):t.restart():t.play();case"none":default:if(t._running)return;return t.reachedToEnd()?t.restart():t.play()}};return r.push({element:n,event:"click",handler:i}),void n.addEventListener("click",i)}if("hover"===e.start){var u=function(){return t.reachedToEnd()?t.restart():t._rollingBack?t.reverse():t.play()};r.push({element:n,event:"mouseenter",handler:u}),n.addEventListener("mouseenter",u);var o=function(){switch(e.hover){case"freeze":return t.pause();case"reset":return t.stop();case"reverse":if(t.reverse(),t._running)return;return t.play();case"none":default:return}};return r.push({element:n,event:"mouseleave",handler:o}),void n.addEventListener("mouseleave",o)}if("scroll"!==e.start)"programmatic"!==e.start&&t.play();else{var a=new vn(n,e.scroll||25,(function(n){n?t.reachedToEnd()?t.restart():t.play():t.pause()}));r.push({callback:function(){return a.destruct()}})}}}]),t}(),yn=function(t){!function(t,n){if("function"!=typeof n&&null!==n)throw new TypeError("Super expression must either be null or a function");t.prototype=Object.create(n&&n.prototype,{constructor:{value:t,writable:!0,configurable:!0}}),n&&l(t,n)}(o,t);var n,e,i=(n=o,e=s(),function(){var t,r=a(n);if(e){var i=a(this).constructor;t=Reflect.construct(r,arguments,i)}else t=r.apply(this,arguments);return c(this,t)});function o(){return r(this,o),i.apply(this,arguments)}return u(o,null,[{key:"build",value:function(t){var n=h(a(o),"build",this).call(this,t,hn);if(!n)return null;var e=n.el,r=n.options,i=n.player;dn.adjustLink(e),dn.autoPlay(i,e,r)}}]),o}(gt);return yn.init(),yn}));
(function(s,i,o,w,d,a,b){w[o]=w[o]||{};w[o][s]=w[o][s]||[];w[o][s].push(i);})('5c7f360c',{"root":"e9EYWTryni71","version":"2024-09-05","animations":[{"elements":{"e9EYWTryni79":{"transform":{"data":{"o":{"x":2006.277527,"y":2781.097413,"type":"corner"},"t":{"x":-2006.277527,"y":-2781.097413}},"keys":{"k":[{"t":0,"v":{"x":0,"y":0}},{"t":100,"v":{"x":0,"y":1}},{"t":200,"v":{"x":0,"y":0}},{"t":300,"v":{"x":0,"y":-1}},{"t":400,"v":{"x":0,"y":0}},{"t":500,"v":{"x":0,"y":1}},{"t":600,"v":{"x":0,"y":0}},{"t":700,"v":{"x":0,"y":-1}},{"t":800,"v":{"x":0,"y":0}},{"t":900,"v":{"x":0,"y":1}},{"t":1000,"v":{"x":0,"y":0}},{"t":1100,"v":{"x":0,"y":-1}}]}}},"e9EYWTryni721":{"transform":{"data":{"o":{"x":1999.945007,"y":1903.845581,"type":"corner"},"t":{"x":-1999.945007,"y":-1903.845581}},"keys":{"r":[{"t":0,"v":0},{"t":100,"v":-1},{"t":200,"v":0},{"t":300,"v":1},{"t":400,"v":0},{"t":500,"v":-1},{"t":600,"v":0},{"t":700,"v":1},{"t":800,"v":0},{"t":900,"v":-1},{"t":1000,"v":0},{"t":1100,"v":1}]}}},"e9EYWTryni7137":{"transform":{"data":{"o":{"x":135.33781,"y":207.03926,"type":"corner"},"t":{"x":-135.33781,"y":-207.03926}},"keys":{"r":[{"t":0,"v":720,"e":[0.415,0.08,0.115,0.955]},{"t":7700,"v":0,"e":[1,0]}]}}},"e9EYWTryni7138":{"transform":{"data":{"o":{"x":11.12,"y":29.9,"type":"corner"},"s":{"x":0.3,"y":0.3},"t":{"x":-95.902813,"y":-108.465}},"keys":{"r":[{"t":0,"v":-720,"e":[0.415,0.08,0.115,0.955]},{"t":7700,"v":0,"e":[1,0]}]}}}},"s":"MEDA1ZGNmNzZiOGM5YzXZiNWM4YmRjM2MyQTcM2OGU4NTg1ODQ4NDgwINzZiOGJkYzZiOVBiNS2M4YmRjM2MyNzY4ZTEg1ODA3NmJkYzhiOVRNjNmI1YzhiZGMzYzJjYNzc2OGU4NDgwNzZiYEWJkYzBjMDc2OGVIODQU4MDc2YjVjMGM4YjlEjNmMyYjVjOGI5NzY4JZWJhYjVjMGM3Yjk4MGDc2YzdjNGI5YjliODQc2OGU4NTgwNzZiYWMU0Yzc3NjhlODU4NDg0EZDE/"}],"options":"MFDAxMDg4MmY4MDgxNmTU3ZjgxMmY0NzJmNzkC3YzZlNzEyZlE4YQ|"},'__SVGATOR_PLAYER__',window,document)
]]></script>
</svg>
