<svg width="110" height="37" viewBox="0 0 110 37" fill="none" xmlns="http://www.w3.org/2000/svg">
<path d="M44.2517 20.9141H40.2332C40.3727 18.8525 40.4424 16.4872 40.4424 13.8182C40.4424 11.1691 40.2731 8.84864 39.9345 6.85682L44.2368 6.4236C44.1073 8.35566 44.0426 10.8205 44.0426 13.8182C44.0426 16.3777 44.1123 18.743 44.2517 20.9141ZM44.9389 2.21091C44.9389 2.88813 44.7049 3.4807 44.2368 3.98861C43.7787 4.49652 43.1363 4.75048 42.3097 4.75048C41.6126 4.75048 41.0648 4.53138 40.6665 4.09318C40.2781 3.65498 40.0839 3.12715 40.0839 2.50969C40.0839 1.83247 40.3129 1.24488 40.771 0.74693C41.2391 0.248977 41.8914 0 42.728 0C43.4351 0 43.9779 0.2191 44.3563 0.657299C44.7447 1.08554 44.9389 1.60341 44.9389 2.21091Z" fill="#034EA2"/>
<path d="M65.149 10.5168C65.149 13.3452 64.2428 15.815 62.4302 17.9263C60.6177 20.0377 58.0781 21.0933 54.8115 21.0933C53.3376 21.0933 51.3059 21.0336 48.7166 20.9141C48.846 17.9064 48.9108 14.5153 48.9108 10.7409C48.9108 7.11576 48.846 4.02347 48.7166 1.46398H51.3308C51.7591 1.46398 52.3965 1.44905 53.243 1.41917C54.0895 1.38929 54.6422 1.37435 54.9012 1.37435C58.4964 1.37435 61.1007 2.27067 62.7141 4.0633C64.3374 5.85594 65.149 8.0071 65.149 10.5168ZM61.0708 11.1591C61.0708 9.247 60.5131 7.63861 59.3977 6.33397C58.2823 5.01937 56.5793 4.36207 54.2887 4.36207C53.8604 4.36207 53.2728 4.40689 52.5259 4.49652C52.6255 6.48834 52.6753 8.56978 52.6753 10.7409C52.6753 13.1211 52.7251 15.4814 52.8247 17.8218C53.472 17.9512 54.1194 18.016 54.7667 18.016C56.9079 18.016 58.4914 17.3537 59.5172 16.0291C60.5529 14.6946 61.0708 13.0713 61.0708 11.1591Z" fill="#034EA2"/>
<path d="M72.693 20.9141H68.4654C68.5949 17.8267 68.6596 14.4357 68.6596 10.7409C68.6596 7.1058 68.5949 4.01351 68.4654 1.46398H72.693C72.5636 3.97367 72.4988 7.06596 72.4988 10.7409C72.4988 14.4954 72.5636 17.8865 72.693 20.9141Z" fill="#034EA2"/>
<path d="M93.9656 20.9141H89.1853C89.1853 20.2568 88.7321 18.3944 87.8259 15.327H80.9242C79.9881 18.3446 79.52 20.207 79.52 20.9141H75.0235C75.0235 20.5257 76.1837 17.3387 78.5042 11.3533C80.8346 5.36794 81.9998 2.07149 81.9998 1.46398H87.6466C87.6466 2.03165 88.6973 5.28329 90.7986 11.2189C92.91 17.1445 93.9656 20.3763 93.9656 20.9141ZM87.064 12.4737C85.361 7.33486 84.5095 4.55628 84.5095 4.138H84.2705C84.2705 4.5264 83.3891 7.30498 81.6263 12.4737H87.064Z" fill="#034EA2"/>
<path d="M56.9741 36.4312H53.9884C54.1462 34.5305 54.223 32.6799 54.223 30.8869C54.223 29.5403 54.0499 28.6593 53.7036 28.2476C53.3612 27.836 52.8073 27.6281 52.0493 27.6281C51.4415 27.6281 50.799 27.8513 50.1217 28.2938C50.091 29.2327 50.0755 30.0751 50.0755 30.8177C50.0755 32.072 50.0987 33.9419 50.1449 36.4312H47.1208C47.2861 34.3728 47.3708 32.3683 47.3708 30.4214C47.3708 29.4172 47.2283 28.6979 46.9475 28.2707C46.6667 27.8436 46.0818 27.6281 45.1931 27.6281C44.3775 27.6281 43.6964 27.9013 43.154 28.4516C43.1924 31.4256 43.2117 34.0881 43.2117 36.4312H40.1799C40.3145 34.0881 40.3799 32.2374 40.3799 30.8869C40.3799 29.1286 40.1992 27.4319 39.8297 25.8007L42.7153 25.4852L42.9078 26.6817H43.0886C44.0657 25.7929 45.1662 25.3505 46.3897 25.3505C47.9248 25.3505 49.0021 25.7929 49.6255 26.6817H49.8062C50.9181 25.7929 52.0185 25.3505 53.1073 25.3505C54.3847 25.3505 55.3504 25.6275 56.0007 26.1776C56.6508 26.7318 56.9741 27.7321 56.9741 29.1826C56.9741 29.3249 56.9663 29.5981 56.951 30.0021C56.9356 30.4022 56.9279 30.6754 56.9279 30.8177C56.9279 32.072 56.9433 33.9419 56.9741 36.4312ZM68.6511 36.4197L65.9925 36.512C65.8694 36.1926 65.8118 35.9079 65.8118 35.654H65.6655C64.8382 36.3581 63.7226 36.7121 62.3181 36.7121C61.3756 36.7121 60.5983 36.4505 59.979 35.9311C59.3557 35.4078 59.0479 34.7152 59.0479 33.8496C59.0479 32.7067 59.5288 31.7718 60.4945 31.0447C61.4601 30.3137 63.153 29.929 65.5732 29.8828C65.5886 29.7482 65.5962 29.6174 65.5962 29.4981C65.5962 28.6863 65.4 28.1515 65.0114 27.8937C64.6189 27.6321 63.9033 27.505 62.8568 27.505C61.7219 27.505 60.6138 27.6551 59.5326 27.9553L59.7788 25.8815C60.8022 25.5275 62.2451 25.3505 64.1073 25.3505C65.4693 25.3505 66.5197 25.6352 67.2583 26.2084C68.001 26.7778 68.3703 27.7782 68.3703 29.2057C68.3703 29.5211 68.3549 30.0945 68.3279 30.9294C68.3049 31.7642 68.2895 32.3222 68.2895 32.5992C68.2895 34.1534 68.4087 35.427 68.6511 36.4197ZM65.6424 34.0765C65.5962 33.0608 65.5732 32.1837 65.5732 31.4487C63.0107 31.4487 61.7295 32.0989 61.7295 33.3994C61.7295 34.2921 62.2951 34.7383 63.4224 34.7383C64.3073 34.7383 65.046 34.5189 65.6424 34.0765ZM78.2544 25.7236L77.6003 28.3592C77.0425 28.1361 76.4808 28.0206 75.9074 28.0206C74.8032 28.0206 74.076 28.5169 73.722 29.5097C73.722 32.5068 73.7452 34.8153 73.7913 36.4312H70.7903C70.9211 34.169 70.9827 32.3222 70.9827 30.8869C70.9827 29.0978 70.7942 27.4013 70.421 25.8007L73.295 25.4852C73.422 26.3123 73.4874 26.7971 73.4874 26.9394H73.6645C74.3569 25.8815 75.2765 25.3505 76.4268 25.3505C76.9694 25.3505 77.5773 25.4736 78.2544 25.7236ZM90.0585 36.4312H86.6073C86.6073 36.1543 86.0379 35.2116 84.8952 33.6072C83.7524 32.0028 83.0254 31.2025 82.706 31.2025H82.5598C82.5598 32.7415 82.6059 34.4844 82.6982 36.4312H79.7087C80.0522 33.4847 79.9655 27.5269 79.6505 25.7552L82.5512 25.7628C82.3568 27.1735 82.3758 28.7998 82.552 29.7251H82.706C82.9175 29.7251 83.514 29.1172 84.4989 27.9053C85.4839 26.6895 85.9764 25.9622 85.9764 25.7236H89.3352C89.3352 25.9546 88.8234 26.6047 87.8038 27.6743C86.7804 28.7401 85.9532 29.475 85.3222 29.8828V30.0521C86.0225 30.5408 86.9844 31.6487 88.2155 33.384C89.4429 35.1153 90.0585 36.1311 90.0585 36.4312ZM101.285 29.929C101.285 30.3099 101.262 30.8101 101.22 31.4256L93.9599 31.5487C94.0637 32.3991 94.4292 33.107 95.0525 33.6687C95.6758 34.2343 96.4954 34.5151 97.5111 34.5151C98.6384 34.5151 99.8349 34.3458 101.105 34.0073L100.882 36.1926C99.8427 36.5698 98.5576 36.7582 97.0264 36.7582C95.0871 36.7582 93.6022 36.2118 92.5672 35.1231C91.5322 34.0341 91.0166 32.7223 91.0166 31.191C91.0166 29.5904 91.509 28.2015 92.4863 27.0242C93.4675 25.8469 94.8295 25.2621 96.5761 25.2621C98.1689 25.2621 99.3502 25.6928 100.124 26.5586C100.901 27.4205 101.285 28.5439 101.285 29.929ZM98.65 29.8251C98.65 28.0976 97.9112 27.2319 96.4377 27.2319C95.0333 27.2319 94.1984 28.1284 93.9368 29.9174L98.65 29.8251ZM110 34.3228L109.808 36.3311C109.28 36.5543 108.619 36.6659 107.822 36.6699C106.606 36.6659 105.687 36.3389 105.071 35.6771C104.456 35.0153 104.148 33.7419 104.148 31.8527C104.148 30.7216 104.156 29.4366 104.171 28.0014C103.786 28.0014 103.267 28.0206 102.617 28.0668L102.694 25.8469C103.271 25.893 103.809 25.916 104.306 25.916C104.313 25.5159 104.344 24.4695 104.394 22.7688L107.068 22.4419C106.953 23.9385 106.899 25.0965 106.899 25.916C107.53 25.916 108.473 25.8852 109.727 25.8237L109.638 28.0668C108.496 28.0206 107.568 28.0014 106.853 28.0014C106.837 28.9979 106.83 30.0483 106.83 31.1447C106.83 32.4836 106.964 33.3802 107.238 33.8342C107.507 34.2883 107.984 34.5151 108.669 34.5151C109.08 34.5151 109.523 34.4497 110 34.3228Z" fill="#034EA2"/>
<path d="M6.63024 29.0755H0.733612C0.328449 29.0755 0 29.404 0 29.8091V35.7058C0 36.1109 0.328449 36.4394 0.733612 36.4394H6.63024C7.0354 36.4394 7.36385 36.1109 7.36385 35.7058V29.8091C7.36385 29.404 7.0354 29.0755 6.63024 29.0755Z" fill="#034EA2"/>
<path d="M15.8848 29.0755H9.98813C9.58296 29.0755 9.25452 29.404 9.25452 29.8091V35.7058C9.25452 36.1109 9.58296 36.4394 9.98813 36.4394H15.8848C16.2899 36.4394 16.6184 36.1109 16.6184 35.7058V29.8091C16.6184 29.404 16.2899 29.0755 15.8848 29.0755Z" fill="#034EA2"/>
<path d="M25.042 29.0755H19.1454C18.7402 29.0755 18.4118 29.404 18.4118 29.8091V35.7058C18.4118 36.1109 18.7402 36.4394 19.1454 36.4394H25.042C25.4472 36.4394 25.7756 36.1109 25.7756 35.7058V29.8091C25.7756 29.404 25.4472 29.0755 25.042 29.0755Z" fill="#034EA2"/>
<path d="M34.2318 29.0755H28.3352C27.93 29.0755 27.6016 29.404 27.6016 29.8091V35.7058C27.6016 36.1109 27.93 36.4394 28.3352 36.4394H34.2318C34.637 36.4394 34.9654 36.1109 34.9654 35.7058V29.8091C34.9654 29.404 34.637 29.0755 34.2318 29.0755Z" fill="#034EA2"/>
<path d="M15.8848 19.8534H9.98813C9.58296 19.8534 9.25452 20.1819 9.25452 20.587V26.4837C9.25452 26.8888 9.58296 27.2173 9.98813 27.2173H15.8848C16.2899 27.2173 16.6184 26.8888 16.6184 26.4837V20.587C16.6184 20.1819 16.2899 19.8534 15.8848 19.8534Z" fill="#034EA2"/>
<path d="M25.042 19.8534H19.1454C18.7402 19.8534 18.4118 20.1819 18.4118 20.587V26.4837C18.4118 26.8888 18.7402 27.2173 19.1454 27.2173H25.042C25.4472 27.2173 25.7756 26.8888 25.7756 26.4837V20.587C25.7756 20.1819 25.4472 19.8534 25.042 19.8534Z" fill="#034EA2"/>
<path d="M34.2318 19.8534H28.3352C27.93 19.8534 27.6016 20.1819 27.6016 20.587V26.4837C27.6016 26.8888 27.93 27.2173 28.3352 27.2173H34.2318C34.637 27.2173 34.9654 26.8888 34.9654 26.4837V20.587C34.9654 20.1819 34.637 19.8534 34.2318 19.8534Z" fill="#034EA2"/>
<path d="M25.042 10.6962H19.1454C18.7402 10.6962 18.4118 11.0246 18.4118 11.4298V17.3264C18.4118 17.7316 18.7402 18.06 19.1454 18.06H25.042C25.4472 18.06 25.7756 17.7316 25.7756 17.3264V11.4298C25.7756 11.0246 25.4472 10.6962 25.042 10.6962Z" fill="#034EA2"/>
<path d="M34.2318 10.6962H28.3352C27.93 10.6962 27.6016 11.0246 27.6016 11.4298V17.3264C27.6016 17.7316 27.93 18.06 28.3352 18.06H34.2318C34.637 18.06 34.9654 17.7316 34.9654 17.3264V11.4298C34.9654 11.0246 34.637 10.6962 34.2318 10.6962Z" fill="#034EA2"/>
<path d="M34.2318 1.47409H28.3352C27.93 1.47409 27.6016 1.80254 27.6016 2.2077V8.10433C27.6016 8.50949 27.93 8.83794 28.3352 8.83794H34.2318C34.637 8.83794 34.9654 8.50949 34.9654 8.10433V2.2077C34.9654 1.80254 34.637 1.47409 34.2318 1.47409Z" fill="#DE1604"/>
</svg>
