<svg width="48" height="48" viewBox="0 0 48 48" fill="none" xmlns="http://www.w3.org/2000/svg">
<path opacity="0.35" d="M17.9464 29.2303C17.626 29.2303 17.3225 29.1797 17.0696 29.0954C16.8184 29.0102 16.5884 28.8722 16.3951 28.6907C16.2096 28.5221 16.0578 28.3197 15.9567 28.0668C15.8555 27.8307 15.8049 27.5609 15.8049 27.2742H13.6128C13.6128 27.8813 13.7308 28.4209 13.9669 28.8762C14.203 29.3314 14.5233 29.7193 14.9112 30.0397C15.3159 30.3432 15.7712 30.5793 16.2939 30.731C16.7998 30.8996 17.3394 30.984 17.9127 30.984C18.5366 30.984 19.1268 30.8996 19.6495 30.731C20.1891 30.5624 20.6613 30.3095 21.0491 29.9891C21.4369 29.6687 21.7573 29.264 21.9765 28.775C22.1957 28.286 22.3138 27.7464 22.3138 27.1393C22.3138 26.819 22.28 26.4986 22.1957 26.195C22.1148 25.8889 21.9838 25.5983 21.8079 25.3351C21.6393 25.0653 21.4032 24.8292 21.1334 24.61C20.8467 24.3908 20.5095 24.2222 20.1048 24.0873C20.7142 23.8155 21.2344 23.3771 21.6055 22.8226C21.7742 22.5696 21.8922 22.3167 21.9765 22.0469C22.0608 21.7771 22.0946 21.5073 22.0946 21.2375C22.0946 20.6305 21.9934 20.0909 21.791 19.6187C21.4875 18.9105 21.302 18.7587 20.931 18.4552C20.5938 18.1348 20.1385 17.8988 19.6326 17.7301C19.1099 17.5784 18.5366 17.4941 17.9127 17.4941C17.3056 17.4941 16.7492 17.5784 16.2264 17.7639C15.7206 17.9493 15.2653 18.2023 14.8943 18.5227C14.5402 18.8431 14.2536 19.214 14.0343 19.6524C13.832 20.0909 13.7308 20.563 13.7308 21.0858H15.9229C15.9229 20.7991 15.9735 20.5462 16.0747 20.3269C16.2264 19.9981 16.3108 19.9054 16.4962 19.7536C16.6817 19.6019 16.8841 19.467 17.137 19.3827C17.39 19.2983 17.6429 19.2478 17.9464 19.2478C18.6209 19.2478 19.1268 19.4164 19.4472 19.7705C19.7675 20.1077 19.9362 20.5967 19.9362 21.2206C19.9362 21.5242 19.8856 21.794 19.8013 22.0469C19.717 22.2998 19.5652 22.5022 19.3797 22.6708C19.1942 22.8394 18.9582 22.9743 18.6884 23.0755C18.4186 23.1767 18.0813 23.2273 17.7103 23.2273H16.4119V24.9641H17.7103C18.0813 24.9641 18.4186 24.9978 18.7221 25.0821C19.0256 25.1664 19.2785 25.3013 19.4809 25.47C19.6832 25.6555 19.8519 25.8747 19.9699 26.1445C20.0879 26.4143 20.1385 26.7346 20.1385 27.1056C20.1385 27.797 19.9362 28.3197 19.5483 28.6738C19.1605 29.0616 18.6209 29.2303 17.9464 29.2303ZM33.6284 21.2712C33.3249 20.4787 32.9033 19.8042 32.3637 19.2478C31.8241 18.6913 31.1834 18.2529 30.4414 17.9494C29.7163 17.6458 28.8901 17.4941 27.9795 17.4941H24V30.984H27.8783C28.8058 30.984 29.6658 30.8322 30.4246 30.5287C31.1834 30.2252 31.841 29.8036 32.3806 29.2471C32.9202 28.6907 33.3418 28.0162 33.6284 27.2405C33.9151 26.448 34.0668 25.5711 34.0668 24.5931V23.9186C34.0668 22.9406 33.9151 22.0638 33.6284 21.2712ZM31.723 24.5763C31.723 25.2845 31.6387 25.9084 31.4869 26.4817C31.3183 27.0382 31.0822 27.5272 30.7618 27.915C30.4414 28.3028 30.0367 28.6064 29.5646 28.8087C29.0756 29.0111 28.5191 29.1122 27.8952 29.1122H26.3607V19.3658H27.9964C29.2105 19.3658 30.1379 19.7536 30.7618 20.5293C31.4026 21.305 31.723 22.4179 31.723 23.8849V24.5763ZM29.3116 10.4793L31.5543 8.23663C36.7648 10.6985 40.5588 15.6055 41.4863 21.4904C41.5875 22.1818 42.2282 22.654 42.9364 22.5359C43.6278 22.4347 44.0999 21.7771 43.9819 21.0858C42.9702 14.6612 38.9906 9.26523 33.4598 6.33118C30.215 4.60495 26.5555 3.81118 22.8871 4.0379L29.3116 10.4793ZM18.6884 37.9818L16.4457 40.2245C13.8351 38.9924 11.5655 37.1406 9.83442 34.8305C8.10334 32.5205 6.96334 29.8222 6.51373 26.9707C6.48988 26.8056 6.43303 26.647 6.34658 26.5043C6.26012 26.3616 6.14582 26.2378 6.0105 26.1403C5.87517 26.0427 5.72158 25.9734 5.5589 25.9364C5.39621 25.8995 5.22775 25.8957 5.06356 25.9252C4.3722 26.0264 3.90006 26.6841 4.0181 27.3754C5.02984 33.8 9.00936 39.1959 14.5402 42.13C17.3562 43.6307 20.9985 44.6762 25.1129 44.4233L18.6884 37.9818Z" fill="#034EA2"/>
<path d="M17.9469 29.2303C17.6265 29.2303 17.323 29.1797 17.0701 29.0954C16.8189 29.0103 16.5889 28.8723 16.3956 28.6907C16.2101 28.5221 16.0583 28.3197 15.9572 28.0668C15.856 27.8307 15.8054 27.5609 15.8054 27.2743H13.6133C13.6133 27.8813 13.7313 28.4209 13.9674 28.8762C14.2035 29.3315 14.5238 29.7193 14.9117 30.0397C15.3164 30.3432 15.7717 30.5793 16.2944 30.731C16.8003 30.8997 17.3399 30.984 17.9132 30.984C18.5371 30.984 19.1273 30.8997 19.65 30.731C20.1896 30.5624 20.6617 30.3095 21.0496 29.9891C21.4374 29.6687 21.7578 29.264 21.977 28.775C22.1962 28.286 22.3143 27.7464 22.3143 27.1394C22.3143 26.819 22.2805 26.4986 22.1962 26.1951C22.1153 25.8889 21.9843 25.5984 21.8084 25.3351C21.6398 25.0653 21.4037 24.8292 21.1339 24.61C20.8472 24.3908 20.51 24.2222 20.1053 24.0873C20.7147 23.8155 21.2349 23.3771 21.606 22.8226C21.7747 22.5697 21.8927 22.3167 21.977 22.0469C22.0613 21.7771 22.0951 21.5073 22.0951 21.2375C22.0951 20.6305 21.9939 20.0909 21.7915 19.6187C21.488 18.9105 21.3025 18.7588 20.9315 18.4552C20.5943 18.1348 20.139 17.8988 19.6331 17.7302C19.1104 17.5784 18.5371 17.4941 17.9132 17.4941C17.3061 17.4941 16.7497 17.5784 16.2269 17.7639C15.7211 17.9494 15.2658 18.2023 14.8948 18.5227C14.5407 18.8431 14.2541 19.214 14.0348 19.6525C13.8325 20.0909 13.7313 20.563 13.7313 21.0858H15.9234C15.9234 20.7991 15.974 20.5462 16.0752 20.327C16.2269 19.9981 16.3113 19.9054 16.4967 19.7536C16.6822 19.6019 16.8846 19.467 17.1375 19.3827C17.3905 19.2984 17.6434 19.2478 17.9469 19.2478C18.6214 19.2478 19.1273 19.4164 19.4477 19.7705C19.768 20.1077 19.9367 20.5968 19.9367 21.2207C19.9367 21.5242 19.8861 21.794 19.8018 22.0469C19.7175 22.2999 19.5657 22.5022 19.3802 22.6708C19.1947 22.8394 18.9587 22.9743 18.6889 23.0755C18.4191 23.1767 18.0818 23.2273 17.7108 23.2273H16.4124V24.9641H17.7108C18.0818 24.9641 18.4191 24.9978 18.7226 25.0821C19.0261 25.1665 19.279 25.3014 19.4814 25.47C19.6837 25.6555 19.8524 25.8747 19.9704 26.1445C20.0884 26.4143 20.139 26.7347 20.139 27.1056C20.139 27.797 19.9367 28.3197 19.5488 28.6738C19.161 29.0617 18.6214 29.2303 17.9469 29.2303ZM33.6289 21.2712C33.3254 20.4787 32.9038 19.8042 32.3642 19.2478C31.8246 18.6913 31.1839 18.2529 30.4419 17.9494C29.7168 17.6458 28.8906 17.4941 27.98 17.4941H24.0005V30.984H27.8788C28.8063 30.984 29.6663 30.8322 30.4251 30.5287C31.1839 30.2252 31.8415 29.8036 32.3811 29.2471C32.9207 28.6907 33.3422 28.0162 33.6289 27.2405C33.9156 26.448 34.0673 25.5712 34.0673 24.5931V23.9186C34.0673 22.9406 33.9156 22.0638 33.6289 21.2712ZM31.7235 24.5763C31.7235 25.2845 31.6392 25.9084 31.4874 26.4817C31.3188 27.0382 31.0827 27.5272 30.7623 27.915C30.4419 28.3029 30.0372 28.6064 29.5651 28.8087C29.0761 29.0111 28.5196 29.1122 27.8957 29.1122H26.3612V19.3658H27.9969C29.211 19.3658 30.1384 19.7536 30.7623 20.5293C31.4031 21.305 31.7235 22.4179 31.7235 23.8849V24.5763Z" fill="#034EA2"/>
</svg>
