<svg width="30" height="30" viewBox="0 0 30 30" fill="none" xmlns="http://www.w3.org/2000/svg">
<path d="M26.25 21.5625V24.9244L21.5625 20.2369V14.0625C21.5624 13.8884 21.5139 13.7178 21.4223 13.5698C21.3307 13.4218 21.1998 13.3022 21.0441 13.2244L15.9375 10.6697V5.46375L18.3619 7.88812L19.6875 6.5625L15 1.875L10.3125 6.5625L11.6381 7.88812L14.0625 5.46375V10.6706L8.95594 13.2234C8.80009 13.3013 8.66903 13.4211 8.57746 13.5693C8.48588 13.7175 8.43742 13.8883 8.4375 14.0625V20.2369L3.75 24.9244V21.5625H1.875V28.125H8.4375V26.25H5.07563L9.55969 21.7659L14.5809 24.2766C14.7111 24.3416 14.8545 24.3754 15 24.3754C15.1455 24.3754 15.2889 24.3416 15.4191 24.2766L20.4403 21.7659L24.9244 26.25H21.5625V28.125H28.125V21.5625H26.25ZM14.0625 21.9206L10.3125 20.0456V15.5794L14.0625 17.4544V21.9206ZM15 15.8269L11.4713 14.0625L15 12.2981L18.5287 14.0625L15 15.8269ZM19.6875 20.0456L15.9375 21.9206V17.4544L19.6875 15.5794V20.0456Z" fill="#212427"/>
</svg>
