<svg width="20" height="20" viewBox="0 0 20 20" fill="none" xmlns="http://www.w3.org/2000/svg">
<path fill-rule="evenodd" clip-rule="evenodd" d="M9.41098 6.91083C9.56726 6.75461 9.77918 6.66684 10.0001 6.66684C10.2211 6.66684 10.433 6.75461 10.5893 6.91083L15.3035 11.625C15.3831 11.7019 15.4466 11.7938 15.4902 11.8955C15.5339 11.9972 15.5569 12.1065 15.5579 12.2172C15.5588 12.3278 15.5377 12.4375 15.4958 12.54C15.4539 12.6424 15.3921 12.7354 15.3138 12.8137C15.2356 12.8919 15.1425 12.9538 15.0401 12.9957C14.9377 13.0376 14.828 13.0587 14.7173 13.0577C14.6067 13.0567 14.4973 13.0338 14.3956 12.9901C14.294 12.9464 14.202 12.8829 14.1251 12.8033L10.0001 8.67833L5.87515 12.8033C5.71798 12.9551 5.50748 13.0391 5.28898 13.0372C5.07049 13.0353 4.86147 12.9477 4.70697 12.7932C4.55246 12.6387 4.46482 12.4297 4.46292 12.2112C4.46102 11.9927 4.54502 11.7822 4.69682 11.625L9.41098 6.91083Z" fill="#464C53"/>
</svg>
