<svg width="20" height="20" viewBox="0 0 20 20" fill="none" xmlns="http://www.w3.org/2000/svg">
<path fill-rule="evenodd" clip-rule="evenodd" d="M13.0893 9.41101C13.2455 9.56729 13.3333 9.77921 13.3333 10.0002C13.3333 10.2211 13.2455 10.4331 13.0893 10.5893L8.37513 15.3035C8.29825 15.3831 8.2063 15.4466 8.10463 15.4903C8.00296 15.5339 7.89361 15.5569 7.78296 15.5579C7.67231 15.5589 7.56258 15.5378 7.46016 15.4959C7.35775 15.454 7.26471 15.3921 7.18646 15.3138C7.10822 15.2356 7.04634 15.1426 7.00444 15.0401C6.96254 14.9377 6.94145 14.828 6.94242 14.7173C6.94338 14.6067 6.96637 14.4973 7.01004 14.3957C7.05371 14.294 7.1172 14.2021 7.19679 14.1252L11.3218 10.0002L7.19679 5.87518C7.04499 5.71801 6.961 5.50751 6.96289 5.28901C6.96479 5.07052 7.05243 4.86151 7.20694 4.707C7.36145 4.55249 7.57046 4.46485 7.78896 4.46295C8.00745 4.46105 8.21795 4.54505 8.37512 4.69685L13.0893 9.41101Z" fill="#464C53"/>
</svg>
