<svg width="20" height="20" viewBox="0 0 20 20" fill="none" xmlns="http://www.w3.org/2000/svg">
<path fill-rule="evenodd" clip-rule="evenodd" d="M6.91071 10.589C6.75448 10.4327 6.66672 10.2208 6.66672 9.99985C6.66672 9.77888 6.75448 9.56696 6.91071 9.41068L11.6249 4.69652C11.7017 4.61693 11.7937 4.55344 11.8954 4.50977C11.997 4.46609 12.1064 4.4431 12.217 4.44214C12.3277 4.44118 12.4374 4.46227 12.5398 4.50417C12.6423 4.54607 12.7353 4.60795 12.8135 4.68619C12.8918 4.76443 12.9537 4.85748 12.9956 4.95989C13.0375 5.0623 13.0585 5.17204 13.0576 5.28269C13.0566 5.39333 13.0336 5.50268 12.99 5.60435C12.9463 5.70603 12.8828 5.79798 12.8032 5.87485L8.67821 9.99985L12.8032 14.1248C12.955 14.282 13.039 14.4925 13.0371 14.711C13.0352 14.9295 12.9476 15.1385 12.7931 15.293C12.6386 15.4475 12.4295 15.5352 12.211 15.5371C11.9925 15.539 11.782 15.455 11.6249 15.3032L6.91071 10.589Z" fill="#464C53"/>
</svg>
