<svg width="30" height="30" viewBox="0 0 30 30" fill="none" xmlns="http://www.w3.org/2000/svg">
<path d="M13.6875 22.025L10.115 18.4525L11.015 17.5525L13.6875 20.2263L18.9862 14.9275L19.885 15.8275L13.6875 22.025ZM7.02 26.25C6.44417 26.25 5.96375 26.0575 5.57875 25.6725C5.19375 25.2875 5.00083 24.8071 5 24.2313V8.26877C5 7.69377 5.19292 7.21377 5.57875 6.82877C5.96458 6.44377 6.445 6.25086 7.02 6.25002H9.23125V3.46252H10.5775V6.25002H19.52V3.46252H20.77V6.25002H22.9813C23.5563 6.25002 24.0367 6.44294 24.4225 6.82877C24.8083 7.21461 25.0008 7.69502 25 8.27002V24.2313C25 24.8063 24.8075 25.2867 24.4225 25.6725C24.0375 26.0584 23.5567 26.2509 22.98 26.25H7.02ZM7.02 25H22.9813C23.1729 25 23.3492 24.92 23.51 24.76C23.6708 24.6 23.7508 24.4234 23.75 24.23V13.27H6.25V24.2313C6.25 24.4229 6.33 24.5992 6.49 24.76C6.65 24.9209 6.82625 25.0009 7.01875 25M6.25 12.0188H23.75V8.26877C23.75 8.07711 23.67 7.90086 23.51 7.74002C23.35 7.57919 23.1733 7.49919 22.98 7.50002H7.02C6.8275 7.50002 6.65083 7.58002 6.49 7.74002C6.32917 7.90002 6.24917 8.07669 6.25 8.27002V12.0188Z" fill="#212427"/>
<path d="M7.02 25H22.9813C23.1729 25 23.3492 24.92 23.51 24.76C23.6708 24.6 23.7508 24.4234 23.75 24.23V13.27H6.25V24.2313C6.25 24.4229 6.33 24.5992 6.49 24.76C6.65 24.9209 6.82625 25.0009 7.01875 25M6.25 12.0188H23.75V8.26877C23.75 8.07711 23.67 7.90086 23.51 7.74002C23.35 7.57919 23.1733 7.49919 22.98 7.50002H7.02C6.8275 7.50002 6.65083 7.58002 6.49 7.74002C6.32917 7.90002 6.24917 8.07669 6.25 8.27002V12.0188ZM6.25 12.0188V7.50002M13.6875 22.025L10.115 18.4525L11.015 17.5525L13.6875 20.2263L18.9862 14.9275L19.885 15.8275L13.6875 22.025ZM7.02 26.25C6.44417 26.25 5.96375 26.0575 5.57875 25.6725C5.19375 25.2875 5.00083 24.8071 5 24.2313V8.26877C5 7.69377 5.19292 7.21377 5.57875 6.82877C5.96458 6.44377 6.445 6.25086 7.02 6.25002H9.23125V3.46252H10.5775V6.25002H19.52V3.46252H20.77V6.25002H22.9813C23.5563 6.25002 24.0367 6.44294 24.4225 6.82877C24.8083 7.21461 25.0008 7.69502 25 8.27002V24.2313C25 24.8063 24.8075 25.2867 24.4225 25.6725C24.0375 26.0584 23.5567 26.2509 22.98 26.25H7.02Z" stroke="#212427" stroke-width="0.75"/>
</svg>
