<svg width="48" height="48" viewBox="0 0 48 48" fill="none" xmlns="http://www.w3.org/2000/svg">
<path opacity="0.35" d="M36 42H12C8.686 42 6 39.314 6 36V14H42V36C42 39.314 39.314 42 36 42Z" fill="#FE5001"/>
<path d="M18 34H14C12.896 34 12 33.104 12 32V28C12 26.896 12.896 26 14 26H18C19.104 26 20 26.896 20 28V32C20 33.104 19.104 34 18 34Z" fill="#FE5001"/>
<path d="M43.7902 17.106L42.0002 13.528V12C42.0002 8.686 39.3142 6 36.0002 6H12.0002C8.68622 6 6.00022 8.686 6.00022 12V13.528L4.21022 17.106C3.80622 17.914 3.99422 18.89 4.66822 19.492C4.95622 19.748 7.57422 22 11.0002 22C13.2162 22 15.0962 21.056 16.2242 20.322C17.7742 20.99 20.6642 22 24.0002 22C27.3362 22 30.2262 20.99 31.7762 20.322C32.9042 21.056 34.7842 22 37.0002 22C40.4262 22 43.0442 19.748 43.3322 19.492C44.0062 18.89 44.1942 17.914 43.7902 17.106Z" fill="#FE5001"/>
<path d="M39 26C34.03 26 30 30.03 30 35C30 35.106 30.02 35.212 30.024 35.318C30.214 40.252 34.744 44.984 37.294 47.268C38.27 48.142 39.728 48.142 40.704 47.268C43.254 44.984 47.784 40.254 47.974 35.318C47.98 35.212 48 35.106 48 35C48 30.03 43.97 26 39 26ZM39 38C37.344 38 36 36.658 36 35C36 33.342 37.344 32 39 32C40.656 32 42 33.344 42 35C42 36.656 40.656 38 39 38Z" fill="#FE5001"/>
</svg>
