<svg width="48" height="48" viewBox="0 0 48 48" fill="none" xmlns="http://www.w3.org/2000/svg">
<path opacity="0.35" d="M30 26H18V40H30V26Z" fill="#fd5001"/>
<path opacity="0.35" d="M24 22C28.4183 22 32 18.4183 32 14C32 9.58172 28.4183 6 24 6C19.5817 6 16 9.58172 16 14C16 18.4183 19.5817 22 24 22Z" fill="#fd5001"/>
<path opacity="0.35" d="M40 24C43.3137 24 46 21.3137 46 18C46 14.6863 43.3137 12 40 12C36.6863 12 34 14.6863 34 18C34 21.3137 36.6863 24 40 24Z" fill="#fd5001"/>
<path opacity="0.35" d="M8 24C11.3137 24 14 21.3137 14 18C14 14.6863 11.3137 12 8 12C4.68629 12 2 14.6863 2 18C2 21.3137 4.68629 24 8 24Z" fill="#fd5001"/>
<path d="M21 26H17C13.134 26 10 29.134 10 33C10 36.866 13.134 40 17 40H20.182L22.688 28.812L21 26Z" fill="#fd5001"/>
<path d="M31 26H27L25.312 28.812L27.818 40H31C34.866 40 38 36.866 38 33C38 29.134 34.866 26 31 26Z" fill="#fd5001"/>
<path d="M41 30H35C32.238 30 30 32.238 30 35C30 37.762 30 40 30 40H41C43.762 40 46 37.762 46 35C46 32.238 43.762 30 41 30Z" fill="#fd5001"/>
<path d="M13 30H7C4.238 30 2 32.238 2 35C2 37.762 4.238 40 7 40H18C18 40 18 37.762 18 35C18 32.238 15.762 30 13 30Z" fill="#fd5001"/>
</svg>
