<svg width="48" height="48" viewBox="0 0 48 48" fill="none" xmlns="http://www.w3.org/2000/svg">
<path opacity="0.35" d="M24 31C24 29.2625 24.4188 27.6187 25.1375 26.1562C24.6375 26.0625 24.125 26 23.6 26H22.5562C21.1687 26.6375 19.625 27 18 27C16.375 27 14.8375 26.6375 13.4438 26H12.4C7.7625 26 4 29.7625 4 34.4V37C4 38.6562 5.34375 40 7 40H28.6938C25.8625 38.0063 24 34.7188 24 31ZM18 24C22.4187 24 26 20.4187 26 16C26 11.5813 22.4187 8 18 8C13.5813 8 10 11.5813 10 16C10 20.4187 13.5813 24 18 24Z" fill="#034EA2"/>
<path d="M35 22C30.025 22 26 26.025 26 31C26 35.975 30.025 40 35 40C39.975 40 44 35.975 44 31C44 26.025 39.975 22 35 22ZM39 31.3937C39 31.725 38.725 32 38.3937 32H34.6063C34.275 32 34 31.725 34 31.3937V26.6063C34 26.275 34.275 26 34.6063 26H35.3937C35.725 26 36 26.275 36 26.6063V30H38.3937C38.725 30 39 30.275 39 30.6063V31.3937Z" fill="#034EA2"/>
<path opacity="0.35" d="M39 31.3937C39 31.725 38.725 32 38.3937 32H34.6063C34.275 32 34 31.725 34 31.3937V26.6063C34 26.275 34.275 26 34.6063 26H35.3937C35.725 26 36 26.275 36 26.6063V30H38.3937C38.725 30 39 30.275 39 30.6063V31.3937Z" fill="#034EA2"/>
</svg>
