<svg width="31" height="30" viewBox="0 0 31 30" fill="none" xmlns="http://www.w3.org/2000/svg">
<path fill-rule="evenodd" clip-rule="evenodd" d="M8.3045 26C8.03099 26 7.76869 25.8914 7.57529 25.698C7.3819 25.5046 7.27325 25.2423 7.27325 24.9687L7 8.46875C7 8.19525 7.10865 7.93294 7.30205 7.73955C7.49544 7.54615 7.75774 7.4375 8.03125 7.4375C8.30475 7.4375 8.56706 7.54615 8.76045 7.73955C8.95385 7.93294 9.0625 8.19525 9.0625 8.46875L9.33575 24.9687C9.33575 25.2423 9.2271 25.5046 9.0337 25.698C8.8403 25.8914 8.578 26 8.3045 26ZM22.742 26C22.4685 26 22.2062 25.8914 22.0128 25.698C21.8194 25.5046 21.7108 25.2423 21.7108 24.9687L21.7108 14.6562C21.7108 14.3827 21.8194 14.1204 22.0128 13.927C22.2062 13.7336 22.4685 13.625 22.742 13.625C23.0155 13.625 23.2778 13.7336 23.4712 13.927C23.6646 14.1204 23.7733 14.3827 23.7733 14.6562L23.7733 24.9687C23.7733 25.2423 23.6646 25.5046 23.4712 25.698C23.2778 25.8914 23.0155 26 22.742 26ZM15.5233 26C15.2498 26 14.9875 25.8914 14.7941 25.698C14.6007 25.5046 14.492 25.2423 14.492 24.9687L14.492 5.03125C14.492 4.75775 14.6007 4.49544 14.7941 4.30205C14.9875 4.10865 15.2498 4 15.5233 4C15.7968 4 16.0591 4.10865 16.2525 4.30204C16.4459 4.49544 16.5545 4.75775 16.5545 5.03125L16.5545 24.9687C16.5545 25.2423 16.4459 25.5046 16.2525 25.698C16.0591 25.8914 15.7968 26 15.5233 26Z" fill="#212427"/>
</svg>
