<svg width="48" height="48" viewBox="0 0 48 48" fill="none" xmlns="http://www.w3.org/2000/svg">
<path opacity="0.35" d="M44.1223 25.2585L40.7362 19.6137C40.0725 18.51 38.879 17.8335 37.592 17.8335H30.5007C30.5007 14.7957 28.0385 12.3335 25.0007 12.3335H15.834V6.8335H8.50064V12.3335H4.83398V34.3335C4.83398 37.3713 7.29614 39.8335 10.334 39.8335H30.5007H39.6673C42.7052 39.8335 45.1673 37.3713 45.1673 34.3335V29.0315C45.1673 27.7023 44.8062 26.3988 44.1223 25.2585Z" fill="#034EA2"/>
<path d="M14.9173 43.5002C17.4486 43.5002 19.5007 41.4481 19.5007 38.9168C19.5007 36.3855 17.4486 34.3335 14.9173 34.3335C12.386 34.3335 10.334 36.3855 10.334 38.9168C10.334 41.4481 12.386 43.5002 14.9173 43.5002Z" fill="#034EA2"/>
<path d="M35.0833 43.5002C37.6146 43.5002 39.6667 41.4481 39.6667 38.9168C39.6667 36.3855 37.6146 34.3335 35.0833 34.3335C32.552 34.3335 30.5 36.3855 30.5 38.9168C30.5 41.4481 32.552 43.5002 35.0833 43.5002Z" fill="#034EA2"/>
<path d="M38.794 28.8333H32.3333C31.3213 28.8333 30.5 28.012 30.5 27V23.3333C30.5 22.3213 31.3213 21.5 32.3333 21.5H36.7553C37.4208 21.5 38.035 21.8612 38.3577 22.4423L40.3963 26.109C41.0747 27.3318 40.191 28.8333 38.794 28.8333Z" fill="#034EA2"/>
<path d="M12.1667 5C7.10483 5 3 9.10483 3 14.1667C3 19.2285 7.10483 23.3333 12.1667 23.3333C17.2285 23.3333 21.3333 19.2285 21.3333 14.1667C21.3333 9.10483 17.2285 5 12.1667 5ZM13.5417 8.66667L13.9413 13.4682L16.0717 16.1283C16.5502 16.7242 16.453 17.595 15.8572 18.0735C15.342 18.486 14.6215 18.4695 14.1283 18.0735L10.8705 15.4628C10.48 15.1512 10.2948 14.6782 10.3297 14.2162L10.3333 14.1667L10.7917 8.66667C10.8558 7.90767 11.5213 7.343 12.2822 7.40533C12.9623 7.46217 13.4867 8.00667 13.5417 8.66667Z" fill="#034EA2"/>
</svg>
