<svg width="24" height="24" viewBox="0 0 24 24" fill="none" xmlns="http://www.w3.org/2000/svg"><path d="M19.1109 12C19.1109 15.9274 15.9271 19.1111 11.9998 19.1111C8.07242 19.1111 4.88867 15.9274 4.88867 12C4.88867 8.07264 8.07242 4.88889 11.9998 4.88889C15.9271 4.88889 19.1109 8.07264 19.1109 12Z" fill="#4CAF50" opacity="0.15"></path><path d="M16.422 10.1011C16.6824 9.84072 16.6824 9.41861 16.422 9.15826C16.1617 8.89792 15.7395 8.89792 15.4792 9.15826L16.422 10.1011ZM10.4197 15.1605L9.94832 15.632C10.2087 15.8923 10.6308 15.8923 10.8911 15.632L10.4197 15.1605ZM8.52072 12.3188C8.26037 12.0584 7.83826 12.0584 7.57791 12.3188C7.31756 12.5791 7.31756 13.0012 7.57791 13.2616L8.52072 12.3188ZM15.4792 9.15826L9.94832 14.6891L10.8911 15.632L16.422 10.1011L15.4792 9.15826ZM7.57791 13.2616L9.94832 15.632L10.8911 14.6891L8.52072 12.3188L7.57791 13.2616Z" fill="#4CAF50"></path><circle cx="12" cy="12" r="7.33333" stroke="#4CAF50" stroke-width="1.33333"></circle></svg>