<svg width="48" height="48" viewBox="0 0 48 48" fill="none" xmlns="http://www.w3.org/2000/svg">
<path opacity="0.35" d="M38 8H10C6.686 8 4 10.686 4 14V24C4 27.314 6.686 30 10 30H38C41.314 30 44 27.314 44 24V14C44 10.686 41.314 8 38 8Z" fill="#FE5001"/>
<path d="M24 25C25.6569 25 27 23.6569 27 22C27 20.3431 25.6569 19 24 19C22.3431 19 21 20.3431 21 22C21 23.6569 22.3431 25 24 25Z" fill="#FE5001"/>
<path d="M38 30H10C6.686 30 4 27.314 4 24V36C4 39.314 6.686 42 10 42H38C41.314 42 44 39.314 44 36V24C44 27.314 41.314 30 38 30Z" fill="#FE5001"/>
<path d="M26 4C25.268 4 22.732 4 22 4C19.79 4 18 5.79 18 8H30C30 5.79 28.21 4 26 4Z" fill="#FE5001"/>
</svg>
