<svg fill="none" stroke="" viewBox="0 0 24 24" width="24" height="24" xmlns="http://www.w3.org/2000/svg"><path d="M10 10C11.933 10 13.5 8.433 13.5 6.5C13.5 4.567 11.933 3 10 3C8.067 3 6.5 4.567 6.5 6.5C6.5 8.433 8.067 10 10 10Z" fill="#464C53" opacity="0"></path><path d="M14 21C15.933 21 17.5 19.433 17.5 17.5C17.5 15.567 15.933 14 14 14C12.067 14 10.5 15.567 10.5 17.5C10.5 19.433 12.067 21 14 21Z" fill="#464C53" opacity="0"></path><path clip-rule="evenodd" d="M15.25 6.5C15.25 6.08579 15.5858 5.75 16 5.75H22C22.4142 5.75 22.75 6.08579 22.75 6.5C22.75 6.91421 22.4142 7.25 22 7.25H16C15.5858 7.25 15.25 6.91421 15.25 6.5Z" fill="#464C53" fill-rule="evenodd"></path><path clip-rule="evenodd" d="M1.25 6.5C1.25 6.08579 1.58579 5.75 2 5.75H6C6.41421 5.75 6.75 6.08579 6.75 6.5C6.75 6.91421 6.41421 7.25 6 7.25H2C1.58579 7.25 1.25 6.91421 1.25 6.5Z" fill="#464C53" fill-rule="evenodd"></path><path clip-rule="evenodd" d="M10 3.75C8.48122 3.75 7.25 4.98122 7.25 6.5C7.25 8.01878 8.48122 9.25 10 9.25C11.5188 9.25 12.75 8.01878 12.75 6.5C12.75 4.98122 11.5188 3.75 10 3.75ZM5.75 6.5C5.75 4.15279 7.65279 2.25 10 2.25C12.3472 2.25 14.25 4.15279 14.25 6.5C14.25 8.84721 12.3472 10.75 10 10.75C7.65279 10.75 5.75 8.84721 5.75 6.5Z" fill="#464C53" fill-rule="evenodd"></path><path clip-rule="evenodd" d="M17.25 17.5C17.25 17.0858 17.5858 16.75 18 16.75H22C22.4142 16.75 22.75 17.0858 22.75 17.5C22.75 17.9142 22.4142 18.25 22 18.25H18C17.5858 18.25 17.25 17.9142 17.25 17.5Z" fill="#464C53" fill-rule="evenodd"></path><path clip-rule="evenodd" d="M1.25 17.5C1.25 17.0858 1.58579 16.75 2 16.75H8C8.41421 16.75 8.75 17.0858 8.75 17.5C8.75 17.9142 8.41421 18.25 8 18.25H2C1.58579 18.25 1.25 17.9142 1.25 17.5Z" fill="#464C53" fill-rule="evenodd"></path><path clip-rule="evenodd" d="M14 14.75C12.4812 14.75 11.25 15.9812 11.25 17.5C11.25 19.0188 12.4812 20.25 14 20.25C15.5188 20.25 16.75 19.0188 16.75 17.5C16.75 15.9812 15.5188 14.75 14 14.75ZM9.75 17.5C9.75 15.1528 11.6528 13.25 14 13.25C16.3472 13.25 18.25 15.1528 18.25 17.5C18.25 19.8472 16.3472 21.75 14 21.75C11.6528 21.75 9.75 19.8472 9.75 17.5Z" fill="#464C53" fill-rule="evenodd"></path></svg>