<svg width="48" height="48" viewBox="0 0 48 48" fill="none" xmlns="http://www.w3.org/2000/svg">
<path opacity="0.35" d="M22.6 4.52001L10.6 9.02001C9.04 9.62001 8 11.1 8 12.78V22.2C8 32.3 14.82 41.72 24 44.02C33.18 41.72 40 32.3 40 22.2V12.78C39.9986 11.9661 39.7489 11.172 39.2843 10.5038C38.8198 9.83552 38.1624 9.32487 37.4 9.04001L25.4 4.54001C24.5 4.18001 23.5 4.18001 22.6 4.52001ZM20.46 29.66L16.22 25.42C16.0348 25.2348 15.888 25.015 15.7877 24.7731C15.6875 24.5312 15.636 24.2719 15.636 24.01C15.636 23.7481 15.6875 23.4889 15.7877 23.2469C15.888 23.005 16.0348 22.7852 16.22 22.6C16.4052 22.4148 16.625 22.268 16.8669 22.1678C17.1088 22.0675 17.3681 22.016 17.63 22.016C17.8919 22.016 18.1512 22.0675 18.3931 22.1678C18.635 22.268 18.8548 22.4148 19.04 22.6L21.86 25.42L28.94 18.34C29.1252 18.1548 29.345 18.008 29.5869 17.9078C29.8288 17.8075 30.0881 17.756 30.35 17.756C30.6119 17.756 30.8712 17.8075 31.1131 17.9078C31.355 18.008 31.5748 18.1548 31.76 18.34C31.9452 18.5252 32.092 18.745 32.1923 18.9869C32.2925 19.2289 32.344 19.4881 32.344 19.75C32.344 20.0119 32.2925 20.2712 32.1923 20.5131C32.092 20.755 31.9452 20.9748 31.76 21.16L23.28 29.64C22.52 30.44 21.24 30.44 20.46 29.66Z" fill="#034EA2"/>
<path d="M16.2208 25.42L20.4608 29.66C21.2408 30.44 22.5208 30.44 23.2808 29.64L31.7608 21.16C31.9459 20.9748 32.0928 20.755 32.193 20.5131C32.2932 20.2712 32.3448 20.0119 32.3448 19.75C32.3448 19.4881 32.2932 19.2288 32.193 18.9869C32.0928 18.745 31.9459 18.5252 31.7608 18.34C31.5756 18.1548 31.3558 18.0079 31.1138 17.9077C30.8719 17.8075 30.6126 17.756 30.3508 17.756C30.0889 17.756 29.8296 17.8075 29.5877 17.9077C29.3457 18.0079 29.1259 18.1548 28.9408 18.34L21.8608 25.42L19.0408 22.6C18.8556 22.4148 18.6358 22.2679 18.3938 22.1677C18.1519 22.0675 17.8926 22.016 17.6308 22.016C17.3689 22.016 17.1096 22.0675 16.8677 22.1677C16.6257 22.2679 16.4059 22.4148 16.2208 22.6C16.0356 22.7852 15.8887 23.005 15.7885 23.2469C15.6883 23.4888 15.6367 23.7481 15.6367 24.01C15.6367 24.2719 15.6883 24.5312 15.7885 24.7731C15.8887 25.015 16.0356 25.2348 16.2208 25.42Z" fill="#034EA2"/>
</svg>
