<svg width="31" height="30" viewBox="0 0 31 30" fill="none" xmlns="http://www.w3.org/2000/svg">
<path d="M21.3594 4.6875C18.9395 4.6875 16.8207 5.72812 15.5 7.48711C14.1793 5.72812 12.0605 4.6875 9.64062 4.6875C7.71433 4.68967 5.86755 5.45585 4.50545 6.81795C3.14335 8.18005 2.37717 10.0268 2.375 11.9531C2.375 20.1562 14.5379 26.7961 15.0559 27.0703C15.1924 27.1438 15.345 27.1822 15.5 27.1822C15.655 27.1822 15.8076 27.1438 15.9441 27.0703C16.4621 26.7961 28.625 20.1562 28.625 11.9531C28.6228 10.0268 27.8566 8.18005 26.4946 6.81795C25.1325 5.45585 23.2857 4.68967 21.3594 4.6875ZM15.5 25.1719C13.3602 23.925 4.25 18.2449 4.25 11.9531C4.25186 10.524 4.8204 9.15397 5.83093 8.14343C6.84147 7.1329 8.21151 6.56436 9.64062 6.5625C11.9199 6.5625 13.8336 7.77656 14.6328 9.72656C14.7034 9.89851 14.8236 10.0456 14.978 10.1491C15.1324 10.2526 15.3141 10.3078 15.5 10.3078C15.6859 10.3078 15.8676 10.2526 16.022 10.1491C16.1764 10.0456 16.2966 9.89851 16.3672 9.72656C17.1664 7.77305 19.0801 6.5625 21.3594 6.5625C22.7885 6.56436 24.1585 7.1329 25.1691 8.14343C26.1796 9.15397 26.7481 10.524 26.75 11.9531C26.75 18.2355 17.6375 23.9238 15.5 25.1719Z" fill="#212427"/>
</svg>
