<svg width="16" height="16" viewBox="0 0 16 16" fill="none" xmlns="http://www.w3.org/2000/svg">
<g clip-path="url(#clip0_641_67)">
<path fill-rule="evenodd" clip-rule="evenodd" d="M7.94275 -0.0057373C11.2225 -0.0057373 14 2.78751 14 6.09651C14 9.41835 11.0413 12.8123 8.88875 15.2815C8.79599 15.3879 8.70472 15.4926 8.61525 15.5955C8.607 15.6055 8.25698 15.9943 7.82575 15.9943H7.78748C7.35623 15.9943 7.00873 15.6055 7 15.5955C4.96775 13.2593 2 9.40726 2 6.09651C2 2.78751 4.1665 -0.0057373 7.94275 -0.0057373ZM10.9825 6.02201C10.9825 4.36526 9.63927 3.02201 7.98252 3.02201C6.32577 3.02201 4.98252 4.36526 4.98252 6.02201C4.98252 7.67876 6.32577 9.02201 7.98252 9.02201C9.63927 9.02201 10.9825 7.67876 10.9825 6.02201Z" fill="#212427"/>
</g>
<defs>
<clipPath id="clip0_641_67">
<rect width="16" height="16" fill="white" transform="matrix(-1 0 0 1 16 0)"/>
</clipPath>
</defs>
</svg>
