<svg width="17" height="16" viewBox="0 0 17 16" fill="none" xmlns="http://www.w3.org/2000/svg">
<g clip-path="url(#clip0_114_54)">
<path d="M8.44275 -0.0057373C11.7225 -0.0057373 14.5 2.78751 14.5 6.09651C14.5 9.56151 11.2808 13.105 9.11525 15.5955C9.107 15.6055 8.75698 15.9943 8.32575 15.9943H8.28748C7.85623 15.9943 7.50873 15.6055 7.5 15.5955C5.46775 13.2593 2.5 9.40726 2.5 6.09651C2.5 2.78751 4.6665 -0.0057373 8.44275 -0.0057373ZM8.24225 14.9248C8.25975 14.9423 8.28527 14.9618 8.30777 14.978C8.33077 14.9623 8.35577 14.9423 8.37425 14.9248L8.63577 14.624C10.6888 12.2688 13.5 9.04353 13.5 6.09651C13.5 3.33076 11.184 0.994013 8.44275 0.994013C5.02825 0.994013 3.5 3.55651 3.5 6.09651C3.5 8.33376 5.09575 11.3043 8.24225 14.9248ZM8.48252 3.02201C10.1393 3.02201 11.4825 4.36526 11.4825 6.02201C11.4825 7.67876 10.1393 9.02201 8.48252 9.02201C6.82577 9.02201 5.48252 7.67876 5.48252 6.02201C5.48252 4.36526 6.82577 3.02201 8.48252 3.02201ZM8.48252 8.02201C9.58527 8.02201 10.5055 7.10301 10.5055 6.00001C10.5055 4.89726 9.60828 4.00001 8.50553 4.00001C7.40203 4.00001 6.50553 4.89726 6.50553 6.00001C6.50503 7.10301 7.37902 8.02201 8.48252 8.02201Z" fill="#2196F3"/>
</g>
<defs>
<clipPath id="clip0_114_54">
<rect width="16" height="16" fill="white" transform="matrix(-1 0 0 1 16.5 0)"/>
</clipPath>
</defs>
</svg>
