<svg width="48" height="48" viewBox="0 0 48 48" fill="none" xmlns="http://www.w3.org/2000/svg">
<path d="M42 22H6C4.896 22 4 21.104 4 20C4 18.896 4.896 18 6 18H42C43.104 18 44 18.896 44 20C44 21.104 43.104 22 42 22Z" fill="#fd5001"/>
<path d="M42 42H6C4.896 42 4 41.104 4 40C4 38.896 4.896 38 6 38H42C43.104 38 44 38.896 44 40C44 41.104 43.104 42 42 42Z" fill="#fd5001"/>
<path opacity="0.35" d="M32 38H18V30C18 27.79 19.79 26 22 26H28C30.21 26 32 27.79 32 30V38Z" fill="#fd5001"/>
<path opacity="0.35" d="M22 18H8V8C8 5.79 9.79 4 12 4H18C20.21 4 22 5.79 22 8V18Z" fill="#fd5001"/>
<path opacity="0.35" d="M40 18H32V14C32 12.896 32.896 12 34 12H38C39.104 12 40 12.896 40 14V18Z" fill="#fd5001"/>
<path d="M40 38H32V32C32 30.896 32.896 30 34 30H38C39.104 30 40 30.896 40 32V38Z" fill="#fd5001"/>
<path d="M32 18H22V12C22 10.896 22.896 10 24 10H30C31.104 10 32 10.896 32 12V18Z" fill="#fd5001"/>
<path d="M16 28H10C8.896 28 8 28.896 8 30V38H18V30C18 28.896 17.104 28 16 28Z" fill="#fd5001"/>
</svg>
