<svg width="40" height="40" viewBox="0 0 40 40" fill="none" xmlns="http://www.w3.org/2000/svg">
<path opacity="0.35" d="M16.6667 13.3333H6.66675V33.3333H16.6667V13.3333Z" fill="#fd5001"/>
<path opacity="0.35" d="M33.3333 35H18.3333V8.33333C18.3333 6.49167 19.8249 5 21.6666 5H31.6666C33.5083 5 34.9999 6.49167 34.9999 8.33333V33.3333C34.9999 34.2533 34.2533 35 33.3333 35Z" fill="#fd5001"/>
<path d="M31.6666 11.6667H28.3333V8.33334H31.6666V11.6667Z" fill="#fd5001"/>
<path d="M25.0001 11.6667H21.6667V8.33334H25.0001V11.6667Z" fill="#fd5001"/>
<path d="M31.6666 18.3333H28.3333V15H31.6666V18.3333Z" fill="#fd5001"/>
<path d="M25.0001 18.3333H21.6667V15H25.0001V18.3333Z" fill="#fd5001"/>
<path d="M31.6666 25H28.3333V21.6667H31.6666V25Z" fill="#fd5001"/>
<path d="M25.0001 25H21.6667V21.6667H25.0001V25Z" fill="#fd5001"/>
<path d="M31.6666 31.6667H28.3333V28.3333H31.6666V31.6667Z" fill="#fd5001"/>
<path d="M25.0001 31.6667H21.6667V28.3333H25.0001V31.6667Z" fill="#fd5001"/>
<path d="M15 10H8.33333C6.49167 10 5 11.4917 5 13.3333V33.3333C5 34.2533 5.74667 35 6.66667 35H18.3333V13.3333C18.3333 11.4917 16.8417 10 15 10ZM15 31.6667H8.33333V28.3333H15V31.6667ZM15 25H8.33333V21.6667H15V25ZM15 18.3333H8.33333V15H15V18.3333Z" fill="#fd5001"/>
</svg>
