<svg width="25" height="25" viewBox="0 0 25 25" fill="none" xmlns="http://www.w3.org/2000/svg">
<g clip-path="url(#clip0_544_48)">
<path fill-rule="evenodd" clip-rule="evenodd" d="M10.9993 2.5C9.64387 2.50012 8.30814 2.82436 7.10353 3.44569C5.89893 4.06702 4.86037 4.96742 4.07451 6.07175C3.28866 7.17609 2.77829 8.45235 2.58599 9.79404C2.39368 11.1357 2.52503 12.504 2.96906 13.7846C3.41308 15.0652 4.15692 16.2211 5.13851 17.1557C6.1201 18.0904 7.31098 18.7768 8.61179 19.1576C9.9126 19.5384 11.2856 19.6026 12.6163 19.3449C13.947 19.0872 15.1967 18.515 16.2613 17.676L19.9133 21.328C20.1019 21.5102 20.3545 21.611 20.6167 21.6087C20.8789 21.6064 21.1297 21.5012 21.3151 21.3158C21.5005 21.1304 21.6057 20.8796 21.608 20.6174C21.6102 20.3552 21.5094 20.1026 21.3273 19.914L17.6753 16.262C18.6633 15.0086 19.2784 13.5024 19.4504 11.9157C19.6223 10.3291 19.3441 8.72602 18.6475 7.29009C17.9509 5.85417 16.8642 4.64336 15.5116 3.79623C14.159 2.94911 12.5952 2.49989 10.9993 2.5ZM4.49928 11C4.49928 9.27609 5.1841 7.62279 6.40308 6.40381C7.62207 5.18482 9.27537 4.5 10.9993 4.5C12.7232 4.5 14.3765 5.18482 15.5955 6.40381C16.8145 7.62279 17.4993 9.27609 17.4993 11C17.4993 12.7239 16.8145 14.3772 15.5955 15.5962C14.3765 16.8152 12.7232 17.5 10.9993 17.5C9.27537 17.5 7.62207 16.8152 6.40308 15.5962C5.1841 14.3772 4.49928 12.7239 4.49928 11Z" fill="#AAB9C8"/>
</g>
<defs>
<clipPath id="clip0_544_48">
<rect width="24" height="24" fill="white" transform="translate(0.5 0.5)"/>
</clipPath>
</defs>
</svg>
