<svg width="48" height="48" viewBox="0 0 48 48" fill="none" xmlns="http://www.w3.org/2000/svg">
<path opacity="0.35" d="M40.481 33.1462L30.1958 22.8393C29.348 21.9897 27.9746 21.9861 27.1214 22.8303L26.774 23.1741L16.9622 13.3622C16.3754 11.6036 15.2684 10.0664 13.7852 8.95398L10.4606 6.46096C9.54256 5.77335 8.25916 5.86335 7.44916 6.67516L6.67516 7.44917C5.86335 8.25917 5.77335 9.54258 6.46095 10.4606L8.95396 13.7852C10.0664 15.2684 11.6036 16.3754 13.3622 16.9622L23.1578 26.7579L22.8464 27.0657C21.9896 27.9135 21.986 29.2977 22.8374 30.151L33.1478 40.4812C35.1728 42.5063 38.456 42.5063 40.4828 40.4812C42.506 38.4562 42.506 35.173 40.481 33.1462Z" fill="#034EA2"/>
<path d="M7.52418 40.4757C9.55641 42.5078 12.8523 42.5078 14.8845 40.4757L31.2 24.1956L23.8739 16.7998L7.52418 33.1177C5.49194 35.148 5.49194 38.4436 7.52418 40.4757Z" fill="#034EA2"/>
<path d="M35.1855 17.906C33.6932 19.3981 31.2164 19.3063 29.8447 17.6306C28.6531 16.1726 28.9069 14.0019 30.2389 12.6699L34.3088 8.60027C35.0612 7.84789 34.7156 6.54113 33.6806 6.29274C32.174 5.93275 30.5467 5.88775 28.8583 6.25314C24.666 7.16391 21.3251 10.5982 20.5763 14.8209C19.2443 22.3266 25.674 28.756 33.1802 27.4241C37.4049 26.6753 40.8376 23.3346 41.7466 19.1407C42.112 17.4524 42.0688 15.8252 41.707 14.3187C41.4586 13.2837 40.1536 12.9381 39.4011 13.6887C37.5957 15.4977 35.5815 17.51 35.1855 17.906Z" fill="#034EA2"/>
</svg>
