<svg width="21" height="24" viewBox="0 0 21 24" fill="none" xmlns="http://www.w3.org/2000/svg">
<path d="M17.7625 23.25C16.9342 23.25 16.2313 22.9604 15.6538 22.3813C15.0771 21.8013 14.7887 21.0971 14.7887 20.2687C14.7887 20.1437 14.8437 19.8283 14.9537 19.3225L5.9575 13.9813C5.6875 14.2929 5.35708 14.5375 4.96625 14.715C4.57542 14.8925 4.15583 14.9813 3.7075 14.9813C2.88583 14.9813 2.1875 14.6887 1.6125 14.1037C1.0375 13.5187 0.75 12.8175 0.75 12C0.75 11.1825 1.0375 10.4813 1.6125 9.89625C2.1875 9.31125 2.88583 9.01875 3.7075 9.01875C4.155 9.01875 4.57458 9.1075 4.96625 9.285C5.35792 9.4625 5.68833 9.7075 5.9575 10.02L14.955 4.70125C14.8967 4.53958 14.8546 4.37917 14.8287 4.22C14.8021 4.06 14.7887 3.89667 14.7887 3.73C14.7887 2.9025 15.0792 2.19875 15.66 1.61875C16.2408 1.03958 16.9458 0.75 17.775 0.75C18.6042 0.75 19.3075 1.04042 19.885 1.62125C20.4625 2.20208 20.7508 2.90708 20.75 3.73625C20.7492 4.56542 20.4596 5.26875 19.8813 5.84625C19.3029 6.42375 18.5987 6.71208 17.7687 6.71125C17.3171 6.71125 16.9004 6.61875 16.5187 6.43375C16.1371 6.24875 15.8121 6 15.5438 5.6875L6.545 11.0287C6.60333 11.1904 6.64542 11.3513 6.67125 11.5113C6.69792 11.6704 6.71125 11.8333 6.71125 12C6.71125 12.1667 6.69792 12.3296 6.67125 12.4887C6.64458 12.6479 6.60292 12.8088 6.54625 12.9713L15.5438 18.3125C15.8129 18 16.1379 17.7512 16.5187 17.5662C16.9004 17.3812 17.3171 17.2888 17.7687 17.2888C18.5971 17.2888 19.3013 17.5788 19.8813 18.1588C20.4604 18.7404 20.75 19.4458 20.75 20.275C20.75 21.1042 20.4596 21.8075 19.8787 22.385C19.2979 22.9625 18.5917 23.2508 17.7625 23.25ZM17.7687 22C18.2596 22 18.6708 21.8342 19.0025 21.5025C19.3342 21.1708 19.5 20.76 19.5 20.27C19.5 19.78 19.3342 19.3687 19.0025 19.0362C18.6708 18.7037 18.26 18.5379 17.77 18.5388C17.28 18.5396 16.8687 18.7054 16.5362 19.0362C16.2037 19.3671 16.0379 19.7779 16.0387 20.2687C16.0396 20.7596 16.2054 21.1708 16.5362 21.5025C16.8671 21.8342 17.2771 22 17.7687 22ZM3.7075 13.73C4.20417 13.73 4.62083 13.5642 4.9575 13.2325C5.29333 12.9008 5.46125 12.49 5.46125 12C5.46125 11.51 5.29333 11.0992 4.9575 10.7675C4.62167 10.4358 4.205 10.27 3.7075 10.27C3.22333 10.27 2.81792 10.4358 2.49125 10.7675C2.16458 11.0992 2.00083 11.51 2 12C1.99917 12.49 2.16292 12.9013 2.49125 13.2338C2.81958 13.5663 3.225 13.7317 3.7075 13.73ZM17.77 5.46125C18.26 5.46125 18.6708 5.29542 19.0025 4.96375C19.3342 4.63208 19.5 4.22083 19.5 3.73C19.5 3.23917 19.3342 2.82833 19.0025 2.4975C18.6708 2.16667 18.26 2.00083 17.77 2C17.28 1.99917 16.8687 2.165 16.5362 2.4975C16.2037 2.83 16.0379 3.24125 16.0387 3.73125C16.0396 4.22125 16.2054 4.63208 16.5362 4.96375C16.8671 5.29542 17.2783 5.46125 17.77 5.46125Z" fill="#212427"/>
</svg>
