<svg width="16" height="16" viewBox="0 0 16 16" fill="none" xmlns="http://www.w3.org/2000/svg">
<path d="M4.85463 2.14689C4.80819 2.10033 4.75301 2.06339 4.69227 2.03818C4.63152 2.01297 4.5664 2 4.50063 2C4.43486 2 4.36974 2.01297 4.309 2.03818C4.24825 2.06339 4.19308 2.10033 4.14663 2.14689L1.14663 5.14689C1.05275 5.24078 1 5.36812 1 5.50089C1 5.63367 1.05275 5.76101 1.14663 5.85489C1.24052 5.94878 1.36786 6.00153 1.50063 6.00153C1.63341 6.00153 1.76074 5.94878 1.85463 5.85489L4.00063 3.70789V13.5009C4.00063 13.6335 4.05331 13.7607 4.14708 13.8544C4.24085 13.9482 4.36802 14.0009 4.50063 14.0009C4.63324 14.0009 4.76042 13.9482 4.85418 13.8544C4.94795 13.7607 5.00063 13.6335 5.00063 13.5009V3.70789L7.14663 5.85489C7.24052 5.94878 7.36786 6.00153 7.50063 6.00153C7.63341 6.00153 7.76075 5.94878 7.85463 5.85489C7.94852 5.76101 8.00126 5.63367 8.00126 5.50089C8.00126 5.36812 7.94852 5.24078 7.85463 5.14689L4.85463 2.14689ZM11.1536 13.8609C11.2468 13.9507 11.3712 14.0009 11.5006 14.0009C11.6301 14.0009 11.7544 13.9507 11.8476 13.8609L14.8476 10.9609C14.8949 10.9153 14.9327 10.8609 14.959 10.8007C14.9852 10.7405 14.9993 10.6757 15.0006 10.6101C15.0018 10.5444 14.99 10.4792 14.966 10.4181C14.942 10.357 14.9062 10.3012 14.8606 10.2539C14.8151 10.2066 14.7606 10.1688 14.7004 10.1425C14.6402 10.1163 14.5755 10.1022 14.5098 10.101C14.4442 10.0998 14.3789 10.1115 14.3178 10.1355C14.2567 10.1595 14.2009 10.1953 14.1536 10.2409L12.0006 12.3219V2.50189C12.0006 2.36929 11.948 2.24211 11.8542 2.14834C11.7604 2.05457 11.6332 2.00189 11.5006 2.00189C11.368 2.00189 11.2408 2.05457 11.1471 2.14834C11.0533 2.24211 11.0006 2.36929 11.0006 2.50189V12.3219L8.84863 10.2419C8.80161 10.1956 8.74589 10.1591 8.68468 10.1344C8.62347 10.1098 8.55799 10.0975 8.49201 10.0982C8.42603 10.099 8.36085 10.1128 8.30024 10.1389C8.23962 10.165 8.18477 10.2028 8.13884 10.2502C8.09291 10.2976 8.05682 10.3536 8.03263 10.415C8.00845 10.4764 7.99666 10.5419 7.99795 10.6079C7.99923 10.6739 8.01356 10.739 8.0401 10.7994C8.06665 10.8598 8.1049 10.9143 8.15263 10.9599L11.1536 13.8609Z" fill="#212427"/>
</svg>
