<svg width="20" height="20" viewBox="0 0 20 20" fill="none" xmlns="http://www.w3.org/2000/svg">
<path d="M18.3039 8.97266L14.7882 12.0062L15.8593 16.543C15.9184 16.7892 15.9032 17.0475 15.8156 17.2851C15.728 17.5228 15.5719 17.7291 15.3671 17.8781C15.1623 18.0271 14.9179 18.112 14.6648 18.1222C14.4118 18.1323 14.1614 18.0672 13.9453 17.9352L9.99995 15.507L6.0523 17.9352C5.83622 18.0665 5.58613 18.1309 5.3335 18.1204C5.08087 18.1099 4.837 18.0248 4.63261 17.876C4.42822 17.7271 4.27243 17.5211 4.18488 17.2839C4.09732 17.0467 4.08191 16.7889 4.14058 16.543L5.21558 12.0062L1.69995 8.97266C1.50878 8.80743 1.37052 8.58954 1.30244 8.34621C1.23436 8.10287 1.23947 7.84487 1.31715 7.60443C1.39483 7.36398 1.54162 7.15175 1.73919 6.99424C1.93677 6.83672 2.17637 6.7409 2.42808 6.71875L7.03745 6.34687L8.81558 2.04375C8.91182 1.80923 9.07563 1.60863 9.28618 1.46745C9.49673 1.32627 9.7445 1.25089 9.998 1.25089C10.2515 1.25089 10.4993 1.32627 10.7098 1.46745C10.9204 1.60863 11.0842 1.80923 11.1804 2.04375L12.9578 6.34687L17.5671 6.71875C17.8193 6.74008 18.0596 6.83536 18.2579 6.99266C18.4562 7.14996 18.6037 7.36227 18.6819 7.60301C18.76 7.84375 18.7654 8.10219 18.6973 8.34597C18.6292 8.58975 18.4907 8.80802 18.2992 8.97344L18.3039 8.97266Z" fill="#FFC107"/>
</svg>
