<svg width="24" height="24" viewBox="0 0 24 24" fill="none" xmlns="http://www.w3.org/2000/svg">
<path d="M18.6945 5.26183L18.6963 5.26361C20.4723 7.03961 21.4498 9.40234 21.4498 11.9201C21.4498 17.1039 17.2237 21.3301 12.0398 21.3301C10.4641 21.3301 8.91628 20.9314 7.53902 20.181L7.36469 20.086L7.17269 20.1365L2.75965 21.2965L3.93223 16.9915L3.98674 16.7913L3.88357 16.6114C3.06654 15.1863 2.6298 13.5719 2.6298 11.9101C2.6298 6.7262 6.85595 2.50006 12.0398 2.50006L12.0415 2.50006C13.2783 2.49575 14.5035 2.73773 15.6457 3.2119C16.788 3.68607 17.8244 4.38293 18.6945 5.26183ZM7.58255 19.4288L7.58555 19.4306C8.93195 20.2257 10.4697 20.6501 12.0398 20.6501C16.854 20.6501 20.7799 16.7381 20.7598 11.92C20.7638 10.7716 20.54 9.63378 20.1013 8.57247C19.6625 7.51095 19.0174 6.54705 18.2034 5.73659C16.5595 4.08262 14.3622 3.17006 12.0298 3.17006C7.21366 3.17006 3.2898 7.09392 3.2898 11.9101L3.2898 11.9104C3.29101 13.5534 3.75404 15.163 4.62604 16.5554L4.626 16.5555L4.62966 16.5611L4.70869 16.6836L3.93746 19.5084L3.70938 20.3438L4.5469 20.1236L7.46318 19.3572L7.58255 19.4288ZM9.18355 11.6244L9.18721 11.6309L9.19106 11.6373C9.34452 11.8931 9.86671 12.7594 10.667 13.4732C11.538 14.2515 12.3176 14.5846 12.6514 14.7271C12.6999 14.7479 12.739 14.7646 12.7676 14.778C12.9248 14.8588 13.1295 14.9358 13.3586 14.9092C13.6117 14.8799 13.7899 14.7386 13.9104 14.5943C14.0447 14.4404 14.47 13.9351 14.6797 13.6434C14.6836 13.6447 14.6876 13.6461 14.6918 13.6476C14.8619 13.7196 15.5296 14.0448 15.9778 14.2632C16.1394 14.3419 16.2725 14.4068 16.3434 14.4408C16.3967 14.4664 16.4467 14.4895 16.4888 14.5088C16.4993 14.5137 16.5094 14.5183 16.5189 14.5227C16.539 14.5321 16.5564 14.5402 16.5715 14.5474C16.5711 14.5744 16.5696 14.606 16.5666 14.642C16.5528 14.8062 16.5099 15.0305 16.4197 15.2798L16.4196 15.2798L16.4171 15.2871C16.3741 15.4118 16.1989 15.6118 15.8894 15.8107C15.5932 16.0011 15.2947 16.1134 15.1489 16.1351C14.7538 16.1901 14.3001 16.211 13.8131 16.0541L13.8131 16.0541L13.8059 16.0519C13.4565 15.9451 13.0169 15.8017 12.4514 15.5525L12.4479 15.551C10.2209 14.5901 8.70156 12.3792 8.45444 12.0195C8.44296 12.0028 8.43422 11.9901 8.42829 11.9817L8.42413 11.9758L8.41981 11.9701L8.41796 11.9676C8.36012 11.8905 8.13091 11.585 7.91558 11.1611C7.69426 10.7255 7.5098 10.2074 7.5098 9.71006C7.5098 8.7803 7.94026 8.30658 8.18465 8.03763C8.20473 8.01553 8.22355 7.99481 8.24078 7.97534C8.36025 7.8473 8.47662 7.83006 8.5298 7.83006H8.99622C9.01597 7.83098 9.03449 7.83133 9.04809 7.83151C9.06239 7.85419 9.08265 7.89128 9.10699 7.94931C9.30244 8.43781 9.81073 9.67995 9.88259 9.82367C9.88478 9.82804 9.88663 9.8319 9.88819 9.83529C9.88785 9.83596 9.88752 9.83663 9.88718 9.8373C9.81397 9.98397 9.78854 10.0349 9.72018 10.1147C9.66565 10.1783 9.61725 10.2369 9.57323 10.2903C9.49762 10.3819 9.43491 10.4578 9.37625 10.5165C9.37357 10.5192 9.37064 10.5221 9.3675 10.5252C9.30825 10.5841 9.17179 10.7196 9.10302 10.911C9.01441 11.1575 9.06021 11.4041 9.18355 11.6244ZM16.6547 14.5911C16.6547 14.5911 16.6545 14.591 16.6541 14.5907L16.6547 14.5911ZM9.02481 7.80023C9.02482 7.80018 9.02546 7.80074 9.02667 7.80205C9.0254 7.80093 9.0248 7.80028 9.02481 7.80023Z" fill="#AAB9C8" stroke="#AAB9C8"/>
</svg>
